<svg xmlns="http://www.w3.org/2000/svg" version="1.1" xmlns:xlink="http://www.w3.org/1999/xlink" xmlns:svgjs="http://svgjs.com/svgjs" width="512" height="512" x="0" y="0" viewBox="0 0 50 50" style="enable-background:new 0 0 512 512" xml:space="preserve" class=""><g><path d="M44.78 20.364H33.49c4.436-6.12 3.11-12.16 3.35-14.495 0-5.286-7.128-6.787-9.144-1.87-1.384 2.562-2.343 9.583-9.698 13.144l-3.747 1.815v-.246c0-1.103-.897-2-2-2H6c-2.757 0-5 2.243-5 5v21.452c0 2.757 2.243 5 5 5h6.252c1.103 0 2-.898 2-2v-.047c6.013 1.39 9.298 2.878 14.938 2.878H39.76c2.328 0 4.222-1.942 4.222-4.328 0-.997-.344-1.905-.898-2.637a4.327 4.327 0 0 0 2.684-4.022c0-.996-.344-1.904-.899-2.637a4.327 4.327 0 0 0 2.684-4.02c0-1.05-.381-2.001-.99-2.752C48.14 27.841 49 26.3 49 24.691c0-2.386-1.894-4.327-4.22-4.327zM6 46.164c-1.654 0-3-1.346-3-3V21.712c0-1.655 1.346-3 3-3h6.252c0 36.975 0-.842.002 27.452zm38.78-19.146-5.927.003a1 1 0 1 0 0 2h4.476c1.226 0 2.223 1.045 2.223 2.33s-.997 2.328-2.223 2.328h-6.263a1 1 0 1 0 0 2h4.478c1.226 0 2.223 1.045 2.223 2.33s-.997 2.329-2.223 2.329h-6.263a1 1 0 1 0 0 2h4.478c1.224 0 2.222 1.044 2.222 2.329s-.998 2.328-2.222 2.328H29.19c-5.331 0-8.32-1.4-14.938-2.944v-22.87l4.618-2.237c8.238-3.989 9.325-11.717 10.679-14.19 1.188-2.898 5.293-1.982 5.293 1.115-.231 2.315 1.082 7.806-3.02 13.396l-1.105 1.508c-.48.652.018 1.59.806 1.59H44.78c1.225 0 2.221 1.045 2.221 2.328 0 1.315-1.029 2.327-2.22 2.327z" fill="#007299" data-original="#000000" opacity="1" class=""></path></g></svg>