<svg width="1600" height="1200" viewBox="0 0 1600 1200" fill="none" xmlns="http://www.w3.org/2000/svg">
<path style="mix-blend-mode:multiply" d="M763.97 337.18H228.84V561.47H763.97V337.18Z" fill="url(#paint0_linear_315_74)"/>
<path d="M113.45 263.09L228.85 329.72L228.84 561.47L113.45 494.84V263.09Z" fill="#CED3F8"/>
<path d="M459.63 428.22L228.84 561.47V329.72L459.63 196.47V428.22Z" fill="#BBC0E6"/>
<path d="M459.63 196.47L344.24 129.85L113.46 263.09L228.85 329.72L459.63 196.47ZM304.82 240.33L244.24 275.33L207.69 254.23L268.28 219.23L304.82 240.33Z" fill="#F6F6FB"/>
<path d="M245.41 438.01L258.88 445.79V559.68L245.41 551.9V438.01Z" fill="#CED3F8"/>
<path d="M454.91 446.5L258.88 559.68V445.79L454.91 332.61V446.5Z" fill="#BBC0E6"/>
<path d="M454.91 332.61L441.44 324.84L245.41 438L258.88 445.78L454.91 332.61Z" fill="#F6F6FB"/>
<path style="mix-blend-mode:multiply" d="M285.71 214.59H260.24L304.81 240.33L244.23 275.31H269.71L330.3 240.33L285.71 214.59Z" fill="url(#paint1_linear_315_74)"/>
<path d="M244.23 260.6L304.81 225.62L268.27 204.52L207.69 239.5L244.23 260.6Z" fill="white"/>
<path d="M304.81 240.33L244.23 275.31V260.6L304.81 225.62V240.33Z" fill="#BBC0E6"/>
<path d="M244.23 275.31L207.69 254.21V239.5L244.23 260.6V275.31Z" fill="#CED3F8"/>
<g style="mix-blend-mode:multiply">
<path d="M245.41 438.01L258.88 445.79L454.91 332.61L441.44 324.84L245.41 438.01Z" fill="#DAE0F5"/>
</g>
<g style="mix-blend-mode:multiply">
<path d="M287.83 542.96V450.01L278.18 455.57L278.19 548.53L287.83 542.96Z" fill="#D8DEF3"/>
<path d="M312.599 528.67L312.589 435.71L302.949 441.28V534.24L312.599 528.67Z" fill="#D8DEF3"/>
<path d="M337.36 514.37V421.41L327.71 426.98V519.94L337.36 514.37Z" fill="#D8DEF3"/>
<path d="M362.12 500.07V407.12L352.47 412.68L352.48 505.64L362.12 500.07Z" fill="#D8DEF3"/>
<path d="M386.879 485.77V392.82L377.239 398.38V491.34L386.879 485.77Z" fill="#D8DEF3"/>
<path d="M411.65 471.48L411.64 378.52L402 384.09V477.05L411.65 471.48Z" fill="#D8DEF3"/>
<path d="M436.41 457.18V364.22L426.76 369.79V462.75L436.41 457.18Z" fill="#D8DEF3"/>
</g>
<g style="mix-blend-mode:multiply">
<path d="M397.36 283.56L410.93 275.72V260.04L397.36 267.88V283.56Z" fill="#D8DEF3"/>
<path d="M357.301 306.68L370.881 298.85V283.17L357.301 291V306.68Z" fill="#D8DEF3"/>
<path d="M317.24 329.81L330.82 321.97V306.29L317.24 314.13V329.81Z" fill="#D8DEF3"/>
<path d="M277.19 352.94L290.77 345.09V329.42L277.19 337.26V352.94Z" fill="#D8DEF3"/>
<path d="M397.36 319.17L410.93 311.33V295.66L397.36 303.49V319.17Z" fill="#D8DEF3"/>
<path d="M357.301 342.3L370.881 334.46V318.78L357.301 326.62V342.3Z" fill="#D8DEF3"/>
<path d="M317.24 365.42L330.82 357.58V341.91L317.24 349.74V365.42Z" fill="#D8DEF3"/>
<path d="M277.19 388.55L290.77 380.71V365.03L277.19 372.88V388.55Z" fill="#D8DEF3"/>
<path d="M177.94 346.62L164.36 338.78V323.11L177.94 330.95V346.62Z" fill="#D8DEF3"/>
<path d="M177.94 382.24L164.36 374.4V358.72L177.94 366.57V382.24Z" fill="#D8DEF3"/>
<path d="M177.94 416.38L164.36 408.54V392.86L177.94 400.7V416.38Z" fill="#D8DEF3"/>
<path d="M177.94 450.51L164.36 442.67V426.99L177.94 434.84V450.51Z" fill="#D8DEF3"/>
<path d="M177.94 484.65L164.36 476.81V461.13L177.94 468.97V484.65Z" fill="#D8DEF3"/>
</g>
<path style="mix-blend-mode:multiply" d="M759.56 351.94H674.86V357.2H759.56V351.94Z" fill="url(#paint2_linear_315_74)"/>
<path d="M674.86 357.2L670.69 354.8V307.82L674.86 310.22V357.2Z" fill="#34318B"/>
<path d="M674.86 357.2L679.03 354.8V307.82L674.86 310.22V357.2Z" fill="#1E1C6B"/>
<path d="M720.72 296.69L674.86 228.69C674.86 228.69 628.29 297.69 627.99 298.21C626.145 301.086 625.147 304.423 625.11 307.84C625.11 315.19 629.98 322.53 639.69 328.13C659.11 339.35 690.6 339.35 710.03 328.13C719.74 322.53 724.59 315.19 724.59 307.84C724.522 303.806 723.166 299.899 720.72 296.69Z" fill="url(#paint3_linear_315_74)"/>
<path d="M715.06 269.17L674.859 209.56L634.669 269.17C632.523 271.973 631.332 275.39 631.27 278.92C631.27 285.36 635.53 291.79 644.03 296.71C661.03 306.54 688.66 306.54 705.68 296.71C714.19 291.79 718.45 285.36 718.45 278.92C718.382 275.393 717.194 271.978 715.06 269.17Z" fill="url(#paint4_linear_315_74)"/>
<path d="M709.93 246.47C709.71 246.09 674.86 194.47 674.86 194.47C674.86 194.47 640.01 246.13 639.78 246.47C638.412 248.621 637.671 251.111 637.64 253.66C637.64 259.16 641.26 264.66 648.53 268.86C663.07 277.25 686.64 277.25 701.17 268.86C708.45 264.66 712.08 259.16 712.08 253.66C712.049 251.11 711.304 248.619 709.93 246.47Z" fill="url(#paint5_linear_315_74)"/>
<path style="mix-blend-mode:multiply" d="M1111.52 1062.66H1000.31V1070.15H1111.52V1062.66Z" fill="url(#paint6_linear_315_74)"/>
<path d="M994.86 1000.98L1000.31 1004.13V1070.15L994.86 1067V1000.98Z" fill="#34318B"/>
<path d="M1005.75 1000.98L1000.31 1004.13V1070.15L1005.75 1067V1000.98Z" fill="#1E1C6B"/>
<path d="M948.27 970.25C948.27 959.965 951.319 949.912 957.033 941.36C962.747 932.809 970.868 926.144 980.37 922.208C989.872 918.272 1000.33 917.243 1010.41 919.249C1020.5 921.256 1029.77 926.208 1037.04 933.48C1044.31 940.753 1049.26 950.018 1051.27 960.105C1053.28 970.192 1052.25 980.648 1048.31 990.15C1044.38 999.651 1037.71 1007.77 1029.16 1013.49C1020.61 1019.2 1010.55 1022.25 1000.27 1022.25C986.478 1022.25 973.252 1016.77 963.5 1007.02C953.748 997.268 948.27 984.041 948.27 970.25Z" fill="url(#paint7_radial_315_74)"/>
<path d="M249.55 687.8L254.01 685.22L258.46 682.65L444.64 790.14L435.73 795.29L249.55 687.8Z" fill="#807DFB"/>
<path d="M446.38 783.99L455.29 789.14L433.99 801.44L425.07 796.29L446.38 783.99Z" fill="#807DFB"/>
<path d="M378.88 613.13L383.34 610.55L387.79 607.98L573.97 715.47L565.06 720.62L378.88 613.13Z" fill="#807DFB"/>
<path d="M575.71 709.32L584.62 714.47L563.32 726.77L554.41 721.62L575.71 709.32Z" fill="#807DFB"/>
<path d="M508.21 538.46L512.67 535.89L517.12 533.31L703.3 640.8L694.39 645.95L508.21 538.46Z" fill="#807DFB"/>
<path d="M705.04 634.65L713.95 639.8L692.65 652.1L683.74 646.95L705.04 634.65Z" fill="#807DFB"/>
<path d="M637.54 463.79L642 461.22L646.45 458.64L832.63 566.13L823.72 571.28L637.54 463.79Z" fill="#807DFB"/>
<path d="M834.37 559.98L843.28 565.13L821.98 577.43L813.07 572.28L834.37 559.98Z" fill="#807DFB"/>
<path d="M766.87 389.12L771.33 386.55L775.78 383.98L961.96 491.46L953.05 496.61L766.87 389.12Z" fill="#807DFB"/>
<path d="M963.7 485.31L972.61 490.46L951.31 502.76L942.4 497.62L963.7 485.31Z" fill="#807DFB"/>
<path d="M896.2 314.45L900.66 311.88L905.11 309.31L1091.29 416.8L1082.38 421.94L896.2 314.45Z" fill="#807DFB"/>
<path d="M1093.03 410.65L1101.94 415.79L1080.64 428.09L1071.73 422.95L1093.03 410.65Z" fill="#807DFB"/>
<path d="M726.66 952.97L722.21 955.54L717.75 958.11L588.42 883.44L597.33 878.3L726.66 952.97Z" fill="#807DFB"/>
<path d="M586.68 889.59L577.77 884.45L599.07 872.15L607.99 877.29L586.68 889.59Z" fill="#807DFB"/>
<path d="M912.84 845.48L908.38 848.05L903.93 850.62L774.6 775.95L783.51 770.81L912.84 845.48Z" fill="#807DFB"/>
<path d="M772.86 782.1L763.95 776.96L785.25 764.66L794.16 769.8L772.86 782.1Z" fill="#807DFB"/>
<path d="M1099.02 737.99L1094.56 740.56L1090.11 743.13L960.78 668.47L969.69 663.32L1099.02 737.99Z" fill="#807DFB"/>
<path d="M959.04 674.62L950.13 669.47L971.43 657.17L980.34 662.32L959.04 674.62Z" fill="#807DFB"/>
<path d="M1285.2 630.5L1280.74 633.07L1276.28 635.64L1146.95 560.98L1155.87 555.83L1285.2 630.5Z" fill="#807DFB"/>
<path d="M1145.21 567.13L1136.3 561.98L1157.61 549.68L1166.52 554.83L1145.21 567.13Z" fill="#807DFB"/>
<path d="M713.52 724.61C702.62 724.61 691.72 722.16 683.23 717.25L640.39 692.52L644.31 685.73L687.15 710.46C701.69 718.85 725.35 718.86 739.89 710.46L1094.83 505.54L1098.75 512.33L743.81 717.25C735.32 722.16 724.42 724.61 713.52 724.61Z" fill="#E2C08E"/>
<path d="M625.11 679.17L664.27 687.31L651.74 694.54L639.2 701.78L625.11 679.17Z" fill="#E2C08E"/>
<path d="M685.13 820.21L651.68 800.89C642.85 795.79 637.98 788.78 637.98 781.14C637.98 773.5 642.85 766.49 651.68 761.39L989.93 566.1L993.85 572.89L655.6 768.18C649.3 771.82 645.831 776.42 645.831 781.18C645.831 785.94 649.3 790.5 655.6 794.18L689.05 813.49L685.13 820.21Z" fill="#E2C08E"/>
<path d="M704.33 826.76L690.24 804.15L677.7 811.39L665.17 818.63L704.33 826.76Z" fill="#E2C08E"/>
<path style="mix-blend-mode:multiply" d="M960 799C959.12 799 958.21 798.94 957.24 798.94C944.62 798.94 929.24 801.89 922.99 805.53C919.84 807.35 919.54 809 921.6 810.19C922.261 810.55 922.962 810.828 923.69 811.02C923.16 811.27 922.69 811.52 922.22 811.78C919.07 813.6 918.77 815.24 920.83 816.44C922.89 817.64 927.33 818.37 933.63 818.37C942.533 818.327 951.395 817.147 960 814.86V799Z" fill="url(#paint8_linear_315_74)"/>
<path style="mix-blend-mode:multiply" d="M1044.12 749.49C1043.24 749.49 1042.33 749.43 1041.36 749.43C1028.74 749.43 1013.41 752.43 1007.11 756.02C1003.95 757.84 1003.66 759.48 1005.72 760.68C1006.38 761.04 1007.08 761.319 1007.8 761.51C1007.28 761.76 1006.8 762.01 1006.34 762.26C1003.18 764.08 1002.89 765.73 1004.95 766.92C1007.01 768.11 1011.45 768.86 1017.75 768.86C1026.66 768.807 1035.52 767.614 1044.12 765.31V749.49Z" fill="url(#paint9_linear_315_74)"/>
<path style="mix-blend-mode:multiply" d="M1149.39 518.8C1148.51 518.8 1147.6 518.74 1146.63 518.74C1134.01 518.74 1118.63 521.74 1112.38 525.33C1109.22 527.15 1108.93 528.8 1110.99 529.99C1111.65 530.348 1112.35 530.627 1113.07 530.82C1112.55 531.07 1112.07 531.32 1111.61 531.58C1108.45 533.4 1108.16 535.04 1110.22 536.24C1112.28 537.44 1116.72 538.17 1123.02 538.17C1131.92 538.116 1140.79 536.926 1149.39 534.63V518.8Z" fill="url(#paint10_linear_315_74)"/>
<path style="mix-blend-mode:multiply" d="M1233.53 469.26C1232.65 469.26 1231.74 469.2 1230.77 469.2C1218.15 469.2 1202.77 472.15 1196.51 475.79C1193.36 477.61 1193.06 479.25 1195.12 480.45C1195.78 480.804 1196.48 481.082 1197.21 481.28C1196.68 481.533 1196.19 481.783 1195.74 482.03C1192.59 483.85 1192.29 485.5 1194.35 486.69C1196.41 487.88 1200.86 488.63 1207.16 488.63C1216.07 488.577 1224.93 487.384 1233.53 485.08V469.26Z" fill="url(#paint11_linear_315_74)"/>
<path d="M1205.41 459L1215.79 464.99V453.44L1205.41 447.44V459Z" fill="#362E94"/>
<path d="M1120.25 508.16L1130.64 514.16V502.61L1120.25 496.61V508.16Z" fill="#362E94"/>
<path d="M1109.2 535.86C1107.13 534.66 1105.86 532.11 1105.86 528.47C1105.86 521.18 1110.97 512.33 1117.27 508.69C1120.42 506.87 1123.27 506.69 1125.35 507.89C1127.43 509.09 1128.69 511.64 1128.69 515.28C1128.69 522.57 1123.58 531.42 1117.27 535.06C1114.12 536.88 1111.27 537.05 1109.2 535.86Z" fill="#0E1C70"/>
<path d="M1111 525.51C1111.12 523.328 1111.75 521.204 1112.84 519.31C1113.93 517.416 1115.45 515.806 1117.28 514.61C1120.76 512.61 1123.57 514.24 1123.57 518.24C1123.45 520.422 1122.82 522.546 1121.73 524.439C1120.64 526.331 1119.11 527.939 1117.28 529.13C1113.8 531.14 1111 529.52 1111 525.51Z" fill="#BBC0E6"/>
<path d="M1105.86 528.47C1105.86 521.18 1110.97 512.33 1117.27 508.69C1120.42 506.87 1123.27 506.69 1125.35 507.89L1116.61 502.84C1114.54 501.65 1111.69 501.84 1108.53 503.64C1102.23 507.29 1097.12 516.14 1097.12 523.42C1097.12 527.06 1098.39 529.62 1100.46 530.81L1109.2 535.86C1107.13 534.66 1105.86 532.11 1105.86 528.47Z" fill="#110D60"/>
<path d="M1194.36 486.69C1192.29 485.5 1191.01 482.94 1191.01 479.3C1191.01 472.02 1196.13 463.17 1202.43 459.53C1205.58 457.71 1208.43 457.53 1210.5 458.72C1212.57 459.91 1213.85 462.48 1213.85 466.12C1213.85 473.4 1208.74 482.25 1202.43 485.89C1199.28 487.71 1196.43 487.88 1194.36 486.69Z" fill="#0E1C70"/>
<path d="M1196.15 476.34C1196.27 474.159 1196.9 472.036 1197.99 470.144C1199.08 468.252 1200.6 466.644 1202.43 465.45C1205.9 463.45 1208.72 465.07 1208.72 469.08C1208.6 471.262 1207.97 473.384 1206.88 475.276C1205.78 477.168 1204.26 478.776 1202.43 479.97C1199 482 1196.15 480.35 1196.15 476.34Z" fill="#BBC0E6"/>
<path d="M1191 479.3C1191 472.02 1196.12 463.17 1202.42 459.53C1205.57 457.7 1208.42 457.53 1210.49 458.72L1201.76 453.72C1199.69 452.53 1196.83 452.72 1193.68 454.52C1187.37 458.16 1182.27 467.01 1182.27 474.3C1182.27 477.93 1183.54 480.49 1185.61 481.69L1194.34 486.69C1192.29 485.5 1191 482.94 1191 479.3Z" fill="#110D60"/>
<path d="M1198.5 451.47L1131.54 412.8L1158.78 397.07L1225.74 435.74L1198.5 451.47Z" fill="#FCBA06"/>
<path d="M1094.74 534.88L1027.78 496.22V472.71L1094.74 511.37V534.88Z" fill="#FCBA06"/>
<path d="M1094.74 511.37L1027.78 472.71L1059.05 454.65L1126.02 493.31L1094.74 511.37Z" fill="#FFD03E"/>
<path d="M1126.02 493.31L1059.05 454.65L1068.96 417.94L1135.92 456.61L1126.02 493.31Z" fill="#FCBA06"/>
<path d="M1135.92 456.61L1068.96 417.94L1121.69 387.5L1188.66 426.16L1135.92 456.61Z" fill="#FFD03E"/>
<path d="M1126 493.31L1135.9 456.61L1188.64 426.16L1198.48 451.47L1225.72 435.74V459.25L1215.72 464.99C1215.72 456.47 1209.72 452.99 1202.36 457.28C1195 461.57 1189 471.9 1189 480.42L1130.57 514.16C1130.57 505.64 1124.57 502.16 1117.2 506.44C1109.83 510.72 1103.84 521.07 1103.84 529.59L1094.67 534.88V511.37L1126 493.31Z" fill="#DC8B00"/>
<path d="M1186.36 431.5L1164.54 444.1V471.1L1194.93 453.56L1186.36 431.5ZM1129.59 491.25L1160 473.71V446.71L1138.23 459.28L1129.59 491.25Z" fill="url(#paint12_linear_315_74)"/>
<path d="M1050.77 498.58L1071.75 510.7V502.8L1050.77 490.68V498.58Z" fill="#423EAF"/>
<path d="M1122.84 491.48L1062.38 456.57L1071.35 423.32L1131.82 458.23L1122.84 491.48Z" fill="url(#paint13_linear_315_74)"/>
<path style="mix-blend-mode:screen" d="M1131.27 460.24L1122.84 491.48L1062.38 456.57L1063.61 452.02L1090.32 436.6L1131.27 460.24Z" fill="url(#paint14_linear_315_74)"/>
<path d="M1094.74 536.51L1024.96 496.22V485.31L1094.74 525.6V536.51Z" fill="#CED3F8"/>
<path d="M1103.15 531.65L1094.74 536.51V525.6L1103.15 520.74V531.65Z" fill="#BBC0E6"/>
<path d="M1101.75 519.93L1094.74 523.97L1027.78 485.31V483.68L1024.96 485.31L1094.74 525.6L1103.15 520.74L1101.75 519.93Z" fill="#F6F6FB"/>
<path d="M1228.56 459.25L1218.93 464.81V453.9L1228.56 448.34V459.25Z" fill="#BBC0E6"/>
<path d="M1218.93 464.81L1217.52 464V453.08L1218.93 453.9V464.81Z" fill="#CED3F8"/>
<path d="M1217.52 453.08L1225.74 448.34V446.71L1228.56 448.34L1218.93 453.9L1217.52 453.08Z" fill="#F6F6FB"/>
<path d="M1184.8 464.17C1184.82 463.74 1184.94 463.321 1185.15 462.944C1185.35 462.568 1185.65 462.245 1186 462L1190.54 459.38C1190.68 459.289 1190.84 459.243 1191.01 459.25C1191.3 459.265 1191.58 459.378 1191.8 459.57C1192.02 459.763 1192.17 460.023 1192.22 460.31C1192.32 460.713 1192.29 461.137 1192.13 461.522C1191.98 461.907 1191.71 462.235 1191.36 462.46C1189.14 463.78 1187.48 464.75 1186.76 465.16C1186.58 465.303 1186.36 465.392 1186.13 465.415C1185.9 465.438 1185.67 465.395 1185.46 465.291C1185.26 465.187 1185.09 465.026 1184.97 464.828C1184.85 464.629 1184.79 464.401 1184.8 464.17Z" fill="#6B67E9"/>
<path d="M1192.23 460.59C1192.26 460.947 1192.18 461.304 1192.02 461.624C1191.86 461.944 1191.62 462.216 1191.32 462.41C1189.1 463.73 1187.44 464.7 1186.72 465.11C1185.29 465.94 1184.72 464.77 1184.8 464.17C1184.81 463.867 1184.87 463.568 1184.96 463.28C1184.98 463.479 1185.05 463.67 1185.16 463.837C1185.27 464.004 1185.42 464.143 1185.59 464.241C1185.77 464.339 1185.96 464.393 1186.16 464.4C1186.36 464.407 1186.56 464.366 1186.74 464.28C1187.12 464.09 1190.32 462.36 1190.97 461.93C1191.52 461.626 1191.96 461.158 1192.23 460.59Z" fill="#5652CC"/>
<path d="M1150.47 484C1150.48 483.565 1150.58 483.138 1150.79 482.752C1150.99 482.366 1151.28 482.033 1151.63 481.78L1156.17 479.16C1156.31 479.072 1156.47 479.024 1156.64 479.02C1156.93 479.036 1157.21 479.15 1157.43 479.344C1157.65 479.539 1157.8 479.801 1157.85 480.09C1157.95 480.492 1157.92 480.915 1157.77 481.3C1157.61 481.685 1157.35 482.014 1157 482.24C1154.77 483.56 1153.11 484.53 1152.39 484.94C1152.21 485.069 1152 485.147 1151.78 485.166C1151.56 485.185 1151.34 485.144 1151.15 485.047C1150.95 484.951 1150.78 484.802 1150.66 484.618C1150.54 484.433 1150.48 484.22 1150.47 484Z" fill="#6B67E9"/>
<path d="M1157.9 480.41C1157.93 480.766 1157.86 481.123 1157.7 481.443C1157.54 481.763 1157.3 482.035 1157 482.23C1154.77 483.55 1153.11 484.52 1152.39 484.93C1150.96 485.76 1150.39 484.59 1150.47 483.99C1150.48 483.687 1150.54 483.388 1150.63 483.1C1150.65 483.299 1150.72 483.49 1150.83 483.657C1150.94 483.824 1151.09 483.963 1151.26 484.061C1151.44 484.159 1151.63 484.214 1151.83 484.22C1152.03 484.227 1152.23 484.186 1152.41 484.1C1152.79 483.91 1155.99 482.18 1156.64 481.74C1157.19 481.443 1157.63 480.977 1157.9 480.41Z" fill="#5652CC"/>
<path d="M1086.88 521.06L1074.53 513.93V506.03L1086.88 513.16V521.06Z" fill="#F1F1F6"/>
<path d="M1088.29 520.25L1086.88 521.06V513.16L1088.29 512.34V520.25Z" fill="#CED3F8"/>
<path d="M1088.29 512.34L1086.88 513.16L1074.53 506.03L1075.94 505.22L1088.29 512.34Z" fill="#F6F6FB"/>
<path d="M1045.17 496.98L1032.83 489.85V481.95L1045.17 489.08V496.98Z" fill="#F1F1F6"/>
<path d="M1046.58 496.17L1045.17 496.98V489.08L1046.58 488.26V496.17Z" fill="#CED3F8"/>
<path d="M1046.58 488.26L1045.17 489.08L1032.83 481.95L1034.23 481.13L1046.58 488.26Z" fill="#F6F6FB"/>
<g style="mix-blend-mode:multiply">
<path d="M1046.58 488.26L1047.99 490.65V496.98L1046.58 496.17V488.26Z" fill="#DFE4F4"/>
</g>
<path d="M1045.17 496.98H1047.99L1046.58 496.17L1045.17 496.98Z" fill="#DFE4F4"/>
<g style="mix-blend-mode:multiply">
<path d="M1088.29 512.34L1089.69 514.73V521.06L1088.29 520.25V512.34Z" fill="#DFE4F4"/>
</g>
<path d="M1086.88 521.06H1089.69L1088.29 520.25L1086.88 521.06Z" fill="#DFE4F4"/>
<path d="M1217.52 453.08H1220.34L1228.56 448.34L1225.74 446.71V448.34L1217.52 453.08Z" fill="#DFE4F4"/>
<path d="M1094.74 523.97H1097.56L1103.15 520.74L1101.75 519.93L1094.74 523.97Z" fill="#DFE4F4"/>
<path d="M1017.02 739.61L1027.4 745.6V734.05L1017.02 728.05V739.61Z" fill="#131147"/>
<path d="M931.86 788.77L942.24 794.77V783.21L931.86 777.22V788.77Z" fill="#131147"/>
<path d="M920.81 816.47C918.74 815.27 917.46 812.71 917.46 809.08C917.46 801.79 922.58 792.94 928.88 789.3C932.03 787.48 934.88 787.3 936.95 788.5C939.02 789.7 940.29 792.25 940.29 795.89C940.29 803.17 935.19 812.02 928.88 815.67C925.73 817.49 922.88 817.66 920.81 816.47Z" fill="#0E1C70"/>
<path d="M922.59 806.11C922.709 803.928 923.341 801.806 924.434 799.914C925.527 798.022 927.05 796.414 928.88 795.22C932.35 793.22 935.17 794.84 935.17 798.85C935.051 801.032 934.42 803.155 933.327 805.047C932.234 806.939 930.71 808.547 928.88 809.74C925.41 811.75 922.59 810.12 922.59 806.11Z" fill="#BBC0E6"/>
<path d="M917.461 809.08C917.461 801.79 922.57 792.94 928.88 789.3C932.03 787.48 934.881 787.3 936.951 788.5L928.22 783.5C926.15 782.31 923.291 782.5 920.141 784.3C913.831 787.94 908.73 796.79 908.73 804.08C908.73 807.72 910 810.28 912.07 811.47L920.8 816.52C918.74 815.27 917.461 812.71 917.461 809.08Z" fill="#110D60"/>
<path d="M1006 767.3C1003.93 766.11 1002.65 763.55 1002.65 759.91C1002.65 752.63 1007.77 743.78 1014.07 740.14C1017.22 738.32 1020.07 738.14 1022.14 739.34C1024.21 740.54 1025.48 743.09 1025.48 746.73C1025.48 754.01 1020.37 762.86 1014.07 766.5C1010.89 768.32 1008 768.49 1006 767.3Z" fill="#0E1C70"/>
<path d="M1007.75 757C1007.87 754.818 1008.5 752.695 1009.59 750.803C1010.69 748.911 1012.21 747.303 1014.04 746.11C1017.51 744.11 1020.32 745.73 1020.32 749.74C1020.2 751.921 1019.57 754.043 1018.48 755.935C1017.39 757.828 1015.87 759.436 1014.04 760.63C1010.57 762.58 1007.75 761 1007.75 757Z" fill="#BBC0E6"/>
<path d="M1002.62 759.91C1002.62 752.63 1007.73 743.78 1014.04 740.14C1017.19 738.31 1020.04 738.14 1022.11 739.34L1013.37 734.29C1011.31 733.1 1008.45 733.29 1005.3 735.09C998.99 738.73 993.88 747.58 993.88 754.87C993.88 758.51 995.16 761.06 997.23 762.26L1005.96 767.26C1003.9 766.11 1002.62 763.55 1002.62 759.91Z" fill="#110D60"/>
<path d="M1005.23 734.89L938.26 696.23L969.54 678.17L1036.5 716.84L1005.23 734.89Z" fill="#423EAF"/>
<path d="M905.5 815.98L838.54 777.32V753.81L905.5 792.47V815.98Z" fill="#423EAF"/>
<path d="M905.5 792.47L838.54 753.81L865.78 738.08L932.74 776.74L905.5 792.47Z" fill="#5652CC"/>
<path d="M932.74 776.74L865.78 738.08L875.69 701.37L942.65 740.03L932.74 776.74Z" fill="#423EAF"/>
<path d="M942.65 740.03L875.69 701.37L928.42 670.92L995.38 709.59L942.65 740.03Z" fill="#5652CC"/>
<path d="M932.74 776.74L942.65 740L995.39 709.56L1005.23 734.86L1036.5 716.86V740.37L1027.4 745.62C1027.4 737.1 1021.4 733.62 1014.04 737.91C1006.68 742.2 1000.67 752.53 1000.67 761.05L942.24 794.79C942.24 786.26 936.24 782.79 928.88 787.07C921.52 791.35 915.52 801.7 915.52 810.22L905.52 816V792.47L932.74 776.74Z" fill="#362E94"/>
<path d="M993.09 714.93L971.27 727.53V754.53L1001.66 737L993.09 714.93ZM936.31 774.68L966.7 757.13V730.13L944.94 742.7L936.31 774.68Z" fill="url(#paint15_linear_315_74)"/>
<path d="M929.57 774.91L869.11 740L878.08 706.74L938.54 741.65L929.57 774.91Z" fill="url(#paint16_linear_315_74)"/>
<path d="M905.5 817.61L835.72 777.32V766.41L905.5 806.7V817.61Z" fill="#CED3F8"/>
<path d="M912.5 801.03L905.5 805.07L838.54 766.41V764.78L835.72 766.41L905.5 806.7L913.91 801.84L912.5 801.03Z" fill="#F6F6FB"/>
<path d="M913.91 812.75L905.5 817.61V806.7L913.91 801.84V812.75Z" fill="#BBC0E6"/>
<path d="M1039.32 740.35L1030.9 745.2V734.29L1039.32 729.44V740.35Z" fill="#BBC0E6"/>
<path d="M1030.9 745.2L1029.5 744.39V733.48L1030.9 734.29V745.2Z" fill="#CED3F8"/>
<path d="M1029.5 733.48L1036.5 729.44V727.81L1039.32 729.44L1030.9 734.29L1029.5 733.48Z" fill="#F6F6FB"/>
<path d="M972.84 758.39C972.846 757.955 972.954 757.528 973.156 757.142C973.357 756.756 973.646 756.423 974 756.17L978.54 753.55C978.681 753.462 978.843 753.414 979.01 753.41C979.303 753.424 979.583 753.538 979.803 753.732C980.023 753.927 980.17 754.191 980.22 754.48C980.315 754.882 980.283 755.303 980.129 755.686C979.975 756.07 979.707 756.396 979.36 756.62C977.14 757.95 975.48 758.91 974.76 759.33C974.582 759.459 974.372 759.537 974.153 759.556C973.934 759.575 973.715 759.534 973.517 759.437C973.32 759.341 973.152 759.192 973.033 759.008C972.914 758.823 972.847 758.61 972.84 758.39Z" fill="#807DFB"/>
<path d="M980.27 754.8C980.295 755.157 980.224 755.514 980.064 755.834C979.904 756.154 979.661 756.426 979.36 756.62C977.14 757.95 975.48 758.91 974.76 759.33C973.33 760.15 972.76 758.99 972.84 758.39C972.852 758.087 972.906 757.788 973 757.5C973.021 757.699 973.089 757.89 973.199 758.057C973.309 758.225 973.457 758.363 973.631 758.461C973.806 758.559 974.001 758.614 974.201 758.62C974.401 758.627 974.6 758.586 974.78 758.5C975.16 758.31 978.36 756.58 979.01 756.14C979.56 755.836 980.001 755.368 980.27 754.8Z" fill="#5652CC"/>
<path d="M938.51 778.2C938.517 777.767 938.625 777.341 938.827 776.957C939.028 776.573 939.317 776.242 939.67 775.99L944.22 773.36C944.36 773.28 944.518 773.235 944.68 773.23C944.973 773.244 945.253 773.358 945.473 773.552C945.693 773.747 945.84 774.011 945.89 774.3C945.986 774.701 945.956 775.122 945.804 775.505C945.651 775.888 945.385 776.214 945.04 776.44C942.81 777.77 941.16 778.73 940.43 779.15C940.25 779.276 940.04 779.351 939.822 779.368C939.603 779.385 939.384 779.342 939.188 779.245C938.991 779.148 938.825 778.999 938.705 778.816C938.586 778.632 938.518 778.419 938.51 778.2Z" fill="#807DFB"/>
<path d="M945.94 774.62C945.966 774.976 945.897 775.333 945.738 775.653C945.58 775.973 945.339 776.245 945.04 776.44C942.81 777.77 941.16 778.73 940.43 779.15C939.01 779.97 938.43 778.81 938.51 778.2C938.532 777.901 938.589 777.606 938.68 777.32C938.699 777.519 938.766 777.71 938.875 777.877C938.983 778.044 939.131 778.183 939.305 778.281C939.478 778.379 939.673 778.434 939.873 778.441C940.072 778.448 940.27 778.406 940.45 778.32C940.83 778.12 944.03 776.4 944.69 775.96C945.236 775.655 945.673 775.186 945.94 774.62Z" fill="#5652CC"/>
<g style="mix-blend-mode:multiply">
<path d="M855.93 773.72L858.74 775.33V771.52L857.34 769.36L855.93 773.72Z" fill="#DAE0F5"/>
</g>
<g style="mix-blend-mode:multiply">
<path d="M897.64 797.8L900.45 799.41V795.6L899.05 793.44L897.64 797.8Z" fill="#DAE0F5"/>
</g>
<path d="M897.64 797.8L885.29 790.67V787.13L897.64 794.25V797.8Z" fill="#FFA4B5"/>
<path d="M899.05 796.99L897.64 797.8V794.25L899.05 793.44V796.99Z" fill="#E33C5C"/>
<path d="M899.05 793.44L897.64 794.25L885.29 787.13L886.7 786.32L899.05 793.44Z" fill="#FF5A72"/>
<path d="M855.93 773.72L843.58 766.59V763.05L855.93 770.17V773.72Z" fill="#FFA4B5"/>
<path d="M857.34 772.91L855.93 773.72V770.17L857.34 769.36V772.91Z" fill="#E33C5C"/>
<path d="M857.34 769.36L855.93 770.17L843.58 763.05L844.99 762.23L857.34 769.36Z" fill="#FF5A72"/>
<path style="mix-blend-mode:screen" d="M938 743.66L929.57 774.91L869.11 740L870.33 735.45L897.05 720.02L938 743.66Z" fill="url(#paint17_linear_315_74)"/>
<path d="M905.5 805.07H908.32L913.91 801.84L912.5 801.03L905.5 805.07Z" fill="#DFE4F4"/>
<path d="M1029.5 733.48H1032.31L1039.32 729.44L1036.5 727.81V729.44L1029.5 733.48Z" fill="#DFE4F4"/>
<path style="mix-blend-mode:multiply" d="M1145.56 691.89C1144.68 691.89 1143.76 691.83 1142.79 691.83C1130.18 691.83 1114.85 694.78 1108.54 698.42C1105.39 700.24 1105.09 701.89 1107.15 703.08C1107.81 703.44 1108.51 703.718 1109.24 703.91C1108.71 704.16 1108.24 704.41 1107.77 704.67C1104.62 706.49 1104.32 708.13 1106.38 709.33C1108.44 710.53 1112.88 711.26 1119.18 711.26C1128.09 711.208 1136.95 710.015 1145.56 707.71V691.89Z" fill="url(#paint18_linear_315_74)"/>
<path style="mix-blend-mode:multiply" d="M1229.69 642.35C1228.81 642.35 1227.9 642.29 1226.93 642.29C1214.31 642.29 1198.93 645.29 1192.68 648.88C1189.53 650.7 1189.23 652.34 1191.29 653.54C1191.95 653.895 1192.65 654.174 1193.38 654.37C1192.85 654.62 1192.38 654.87 1191.91 655.12C1188.76 656.94 1188.46 658.59 1190.52 659.78C1192.58 660.97 1197.02 661.71 1203.32 661.71C1212.23 661.662 1221.09 660.472 1229.69 658.17V642.35Z" fill="url(#paint19_linear_315_74)"/>
<path d="M1202.59 632.47L1212.97 638.46V626.91L1202.59 620.91V632.47Z" fill="#131147"/>
<path d="M1117.43 681.63L1127.82 687.63V676.07L1117.43 670.08V681.63Z" fill="#131147"/>
<path d="M1106.38 709.33C1104.32 708.13 1103.04 705.57 1103.04 701.94C1103.04 694.65 1108.15 685.8 1114.45 682.16C1117.6 680.34 1120.45 680.16 1122.53 681.36C1124.61 682.56 1125.87 685.11 1125.87 688.75C1125.87 696.03 1120.76 704.88 1114.45 708.52C1111.3 710.34 1108.45 710.52 1106.38 709.33Z" fill="#0E1C70"/>
<path d="M1108.17 699C1108.29 696.819 1108.92 694.697 1110.01 692.804C1111.1 690.912 1112.62 689.304 1114.45 688.11C1117.93 686.11 1120.74 687.73 1120.74 691.74C1120.62 693.922 1119.99 696.046 1118.9 697.939C1117.81 699.831 1116.28 701.439 1114.45 702.63C1111 704.6 1108.17 703 1108.17 699Z" fill="#BBC0E6"/>
<path d="M1103 701.94C1103 694.65 1108.11 685.8 1114.41 682.16C1117.56 680.34 1120.41 680.16 1122.49 681.36L1113.75 676.31C1111.68 675.12 1108.83 675.31 1105.67 677.11C1099.37 680.75 1094.26 689.6 1094.26 696.89C1094.26 700.53 1095.53 703.09 1097.6 704.28L1106.34 709.33C1104.31 708.13 1103 705.57 1103 701.94Z" fill="#110D60"/>
<path d="M1191.54 660.16C1189.47 658.97 1188.19 656.41 1188.19 652.77C1188.19 645.49 1193.31 636.64 1199.61 633C1202.76 631.18 1205.61 631 1207.68 632.19C1209.75 633.38 1211.03 635.95 1211.03 639.59C1211.03 646.87 1205.92 655.72 1199.61 659.36C1196.46 661.18 1193.61 661.35 1191.54 660.16Z" fill="#0E1C70"/>
<path d="M1193.33 649.81C1193.45 647.629 1194.08 645.506 1195.17 643.614C1196.26 641.722 1197.78 640.114 1199.61 638.92C1203.08 636.92 1205.9 638.54 1205.9 642.55C1205.78 644.731 1205.15 646.853 1204.05 648.745C1202.96 650.637 1201.44 652.245 1199.61 653.44C1196.14 655.44 1193.33 653.82 1193.33 649.81Z" fill="#BBC0E6"/>
<path d="M1188.19 652.77C1188.19 645.49 1193.31 636.64 1199.61 633C1202.76 631.17 1205.61 631 1207.68 632.19L1198.95 627.19C1196.88 626 1194.02 626.19 1190.87 627.99C1184.57 631.63 1179.46 640.48 1179.46 647.77C1179.46 651.4 1180.73 653.96 1182.8 655.16L1191.54 660.16C1189.47 659 1188.19 656.41 1188.19 652.77Z" fill="#110D60"/>
<path d="M1190.8 627.75L1123.84 589.09L1155.11 571.03L1222.07 609.7L1190.8 627.75Z" fill="#CED3F8"/>
<path d="M1091.07 708.84L1024.11 670.18V646.66L1091.07 685.33V708.84Z" fill="#BBC0E6"/>
<path d="M1091.07 685.33L1024.11 646.66L1051.35 630.94L1118.32 669.6L1091.07 685.33Z" fill="#DFE4F4"/>
<path d="M1118.32 669.6L1051.35 630.94L1061.26 594.23L1128.22 632.89L1118.32 669.6Z" fill="#BBC0E6"/>
<path d="M1128.22 632.89L1061.26 594.23L1113.99 563.78L1180.96 602.45L1128.22 632.89Z" fill="#DFE4F4"/>
<path d="M1118.32 669.6L1128.23 632.89L1181 602.44L1190.84 627.75L1222.11 609.69V633.21L1213.01 638.46C1213.01 629.94 1207.01 626.46 1199.65 630.75C1192.29 635.04 1186.29 645.37 1186.29 653.89L1127.86 687.63C1127.86 679.1 1121.86 675.63 1114.49 679.91C1107.12 684.19 1101.13 694.53 1101.13 703.06L1091.13 708.84V685.33L1118.32 669.6Z" fill="#A3A9D0"/>
<path d="M1178.66 607.78L1156.84 620.38V647.38L1187.23 629.83L1178.66 607.78ZM1121.89 667.54L1152.28 650V623L1130.51 635.56L1121.89 667.54Z" fill="url(#paint20_linear_315_74)"/>
<path d="M1115.14 667.77L1054.68 632.86L1063.65 599.6L1124.12 634.51L1115.14 667.77Z" fill="url(#paint21_linear_315_74)"/>
<path d="M1091.07 710.47L1021.29 670.18V659.27L1091.07 699.55V710.47Z" fill="#CED3F8"/>
<path d="M1098.08 693.89L1091.07 697.93L1024.11 659.27V657.64L1021.29 659.27L1091.07 699.55L1099.48 694.7L1098.08 693.89Z" fill="#F6F6FB"/>
<path d="M1099.48 705.61L1091.07 710.47V699.55L1099.48 694.7V705.61Z" fill="#BBC0E6"/>
<path d="M1224.89 633.21L1216.48 638.06V627.15L1224.89 622.3V633.21Z" fill="#BBC0E6"/>
<path d="M1216.48 638.06L1215.07 637.25V626.34L1216.48 627.15V638.06Z" fill="#CED3F8"/>
<path d="M1215.07 626.34L1222.07 622.3V620.67L1224.89 622.3L1216.48 627.15L1215.07 626.34Z" fill="#F6F6FB"/>
<path d="M1158.41 651.24C1158.42 650.807 1158.53 650.381 1158.73 649.997C1158.93 649.613 1159.22 649.282 1159.57 649.03L1164.12 646.4C1164.26 646.32 1164.42 646.276 1164.58 646.27C1164.87 646.284 1165.15 646.398 1165.37 646.592C1165.59 646.787 1165.74 647.051 1165.79 647.34C1165.89 647.741 1165.86 648.162 1165.7 648.545C1165.55 648.928 1165.28 649.254 1164.94 649.48C1162.71 650.81 1161.06 651.77 1160.33 652.19C1160.15 652.316 1159.94 652.391 1159.72 652.408C1159.5 652.425 1159.28 652.382 1159.09 652.285C1158.89 652.188 1158.73 652.039 1158.61 651.856C1158.49 651.672 1158.42 651.459 1158.41 651.24Z" fill="#6B67E9"/>
<path d="M1165.84 647.66C1165.87 648.016 1165.8 648.373 1165.64 648.693C1165.48 649.013 1165.24 649.285 1164.94 649.48C1162.71 650.81 1161.06 651.77 1160.33 652.19C1158.91 653.01 1158.33 651.85 1158.41 651.19C1158.43 650.891 1158.49 650.596 1158.58 650.31C1158.6 650.509 1158.67 650.7 1158.77 650.867C1158.88 651.034 1159.03 651.173 1159.2 651.271C1159.38 651.369 1159.57 651.424 1159.77 651.431C1159.97 651.438 1160.17 651.396 1160.35 651.31C1160.73 651.11 1163.93 649.39 1164.59 648.95C1165.13 648.665 1165.57 648.213 1165.84 647.66Z" fill="#5652CC"/>
<path d="M1124.08 671.06C1124.09 670.627 1124.2 670.201 1124.4 669.817C1124.6 669.433 1124.89 669.102 1125.24 668.85L1129.79 666.22C1129.93 666.139 1130.1 666.094 1130.26 666.09C1130.55 666.108 1130.83 666.222 1131.05 666.416C1131.27 666.61 1131.42 666.872 1131.47 667.16C1131.57 667.562 1131.53 667.983 1131.38 668.366C1131.23 668.75 1130.96 669.076 1130.61 669.3C1128.39 670.63 1126.73 671.59 1126.01 672.01C1125.83 672.139 1125.62 672.216 1125.4 672.234C1125.18 672.252 1124.96 672.21 1124.76 672.113C1124.56 672.015 1124.39 671.866 1124.27 671.681C1124.15 671.495 1124.09 671.281 1124.08 671.06Z" fill="#6B67E9"/>
<path d="M1131.52 667.48C1131.55 667.837 1131.47 668.194 1131.31 668.514C1131.15 668.835 1130.91 669.106 1130.61 669.3C1128.39 670.63 1126.73 671.59 1126.01 672.01C1124.58 672.83 1124.01 671.66 1124.08 671.01C1124.1 670.708 1124.16 670.409 1124.25 670.12C1124.26 670.322 1124.33 670.518 1124.43 670.69C1124.54 670.862 1124.69 671.006 1124.86 671.11C1125.03 671.213 1125.23 671.272 1125.43 671.283C1125.63 671.293 1125.84 671.255 1126.02 671.17C1126.4 670.97 1129.6 669.25 1130.26 668.81C1130.81 668.509 1131.25 668.044 1131.52 667.48Z" fill="#5652CC"/>
<g style="mix-blend-mode:multiply">
<path d="M1083.21 690.66L1086.03 692.27V688.46L1084.62 686.3L1083.21 690.66Z" fill="#DAE0F5"/>
</g>
<path d="M1083.21 690.66L1070.87 683.53V679.99L1083.21 687.11V690.66Z" fill="#FFA4B5"/>
<path d="M1084.62 689.85L1083.21 690.66V687.11L1084.62 686.3V689.85Z" fill="#E33C5C"/>
<path d="M1084.62 686.3L1083.21 687.11L1070.87 679.99L1072.27 679.17L1084.62 686.3Z" fill="#FF5A72"/>
<g style="mix-blend-mode:multiply">
<path d="M1041.5 666.58L1044.32 668.19V664.38L1042.91 662.22L1041.5 666.58Z" fill="#DAE0F5"/>
</g>
<path d="M1041.5 666.58L1029.15 659.45L1029.16 655.91L1041.5 663.03V666.58Z" fill="#FFA4B5"/>
<path d="M1042.91 665.76L1041.5 666.58V663.03L1042.91 662.22V665.76Z" fill="#E33C5C"/>
<path d="M1042.91 662.22L1041.5 663.03L1029.16 655.91L1030.56 655.09L1042.91 662.22Z" fill="#FF5A72"/>
<path style="mix-blend-mode:screen" d="M1123.58 636.52L1115.14 667.77L1054.68 632.86L1055.91 628.31L1082.62 612.88L1123.58 636.52Z" fill="url(#paint22_linear_315_74)"/>
<path d="M1091.07 697.93H1093.89L1099.48 694.7L1098.08 693.89L1091.07 697.93Z" fill="#DFE4F4"/>
<path d="M1215.07 626.34H1217.88L1224.89 622.3L1222.07 620.67V622.3L1215.07 626.34Z" fill="#DFE4F4"/>
<path style="mix-blend-mode:multiply" d="M933.55 283.29L213.76 708.46H230.39L950.18 292.89L933.55 283.29Z" fill="url(#paint23_linear_315_74)"/>
<path d="M933.55 292.89L213.76 708.46V698.86L933.55 283.29V292.89Z" fill="#CED3F8"/>
<path d="M933.55 283.29L213.76 698.86L200.82 691.39L920.62 275.82L933.55 283.29Z" fill="#F6F6FB"/>
<path style="mix-blend-mode:multiply" d="M442.05 552.12H467.92L742.54 393.57L729.6 386.1L442.05 552.12Z" fill="url(#paint24_linear_315_74)"/>
<path d="M200.82 691.39L213.76 698.86V708.46L200.82 700.99V691.39Z" fill="#BBC0E6"/>
<path style="mix-blend-mode:multiply" d="M1412.13 559.59L692.34 984.76H708.97L1428.76 569.19L1412.13 559.59Z" fill="url(#paint25_linear_315_74)"/>
<path d="M1412.13 569.19L692.34 984.76V975.16L1412.13 559.59V569.19Z" fill="#CED3F8"/>
<path d="M1412.13 559.59L692.34 975.16L679.4 967.7L1399.2 552.12L1412.13 559.59Z" fill="#F6F6FB"/>
<path d="M679.4 967.7L692.34 975.16V984.76L679.4 977.3V967.7Z" fill="#BBC0E6"/>
<path d="M521.43 562L653.59 638.31C655.79 639.57 655.79 641.63 653.59 642.89L568.7 691.89C567.463 692.524 566.091 692.855 564.7 692.855C563.309 692.855 561.938 692.524 560.7 691.89L428.59 615.61C426.39 614.35 426.39 612.29 428.59 611.03L513.48 562.03C514.71 561.399 516.07 561.068 517.452 561.062C518.833 561.057 520.197 561.378 521.43 562Z" fill="#E2C08E"/>
<path d="M733.2 930.7L865.36 854.4C867.56 853.13 867.56 851.08 865.36 849.81L780.46 800.81C779.229 800.189 777.869 799.865 776.49 799.865C775.111 799.865 773.751 800.189 772.52 800.81L640.36 877.1C638.16 878.37 638.16 880.42 640.36 881.69L725.25 930.69C726.481 931.318 727.842 931.646 729.224 931.648C730.605 931.649 731.968 931.325 733.2 930.7Z" fill="#E2C08E"/>
<path d="M535.93 610.61C540.444 609.575 545.102 609.324 549.7 609.87C554.031 610.39 558.214 611.774 562 613.94C565.68 616.067 568.014 618.423 569 621.01C569.987 623.597 569.574 626.263 567.76 629.01C565.95 631.74 562.83 634.37 558.43 636.91L546.95 643.54L561.61 652L552.17 657.46L501.32 628.1L522.24 616C526.502 613.516 531.119 611.698 535.93 610.61ZM556.75 625.61C557.13 623.38 555.75 621.32 552.46 619.45C549.223 617.59 545.505 616.737 541.78 617C537.531 617.344 533.421 618.68 529.78 620.9L518.78 627.28L539 638.9L550 632.52C554.114 630.173 556.364 627.867 556.75 625.6V625.61Z" fill="white"/>
<path d="M793.83 859.23C795.83 862.277 796.303 865.233 795.25 868.1C794.196 870.967 791.573 873.6 787.38 876C783.176 878.409 778.53 879.946 773.72 880.52C768.576 881.155 763.361 880.887 758.31 879.73C752.939 878.524 747.786 876.5 743.03 873.73L730.22 866.33L713.84 875.79L703.3 869.7L760.06 836.93L783.41 850.41C788.323 853.25 791.797 856.19 793.83 859.23ZM764.83 872.64C768.989 872.924 773.139 871.963 776.75 869.88C780.37 867.787 781.963 865.493 781.53 863C781.097 860.507 778.586 857.933 774 855.28L761.68 848.16L739.14 861.16L751.46 868.27C755.515 870.757 760.099 872.254 764.84 872.64H764.83Z" fill="white"/>
<path style="mix-blend-mode:multiply" d="M1283.3 802.89H1198.6V808.15H1283.3V802.89Z" fill="url(#paint26_linear_315_74)"/>
<path d="M1198.6 808.15L1194.43 805.74V758.77L1198.6 761.17V808.15Z" fill="#34318B"/>
<path d="M1198.6 808.15L1202.77 805.74V758.77L1198.6 761.17V808.15Z" fill="#1E1C6B"/>
<path d="M1244.45 747.64L1198.6 679.64C1198.6 679.64 1152.03 748.64 1151.73 749.16C1149.88 752.036 1148.89 755.373 1148.85 758.79C1148.85 766.14 1153.71 773.48 1163.43 779.08C1182.85 790.3 1214.34 790.3 1233.76 779.08C1243.48 773.48 1248.33 766.14 1248.33 758.79C1248.26 754.753 1246.9 750.845 1244.45 747.64Z" fill="url(#paint27_linear_315_74)"/>
<path d="M1238.79 720.12L1198.6 660.51L1158.41 720.12C1156.27 722.92 1155.07 726.334 1155.01 729.86C1155.01 736.31 1159.27 742.74 1167.77 747.66C1184.77 757.49 1212.39 757.49 1229.42 747.66C1237.92 742.74 1242.19 736.31 1242.19 729.86C1242.12 726.334 1240.93 722.922 1238.79 720.12Z" fill="url(#paint28_linear_315_74)"/>
<path d="M1233.67 697.42C1233.45 697.04 1198.6 645.42 1198.6 645.42C1198.6 645.42 1163.74 697.08 1163.51 697.42C1162.15 699.572 1161.41 702.062 1161.38 704.61C1161.38 710.11 1165 715.61 1172.27 719.81C1186.81 728.2 1210.38 728.2 1224.91 719.81C1232.19 715.61 1235.82 710.11 1235.82 704.61C1235.79 702.06 1235.04 699.569 1233.67 697.42Z" fill="url(#paint29_linear_315_74)"/>
<path style="mix-blend-mode:multiply" d="M579.88 460.76L548.21 479.04H538L569.67 454.86L579.88 460.76Z" fill="url(#paint30_linear_315_74)"/>
<path d="M538 436.58L569.67 454.86L538 473.15L506.32 454.86L538 436.58Z" fill="#807DFB"/>
<path d="M506.32 454.86L538 473.15V479.04L506.32 460.76V454.86Z" fill="#5652CC"/>
<path d="M569.67 454.86L538 473.15V479.04L569.67 460.76V454.86Z" fill="#423EAF"/>
<path style="mix-blend-mode:multiply" d="M563.469 452.06H538.02V457.67H563.469V452.06Z" fill="url(#paint31_linear_315_74)"/>
<path d="M534.51 320.47V455.64C534.536 455.945 534.642 456.238 534.818 456.489C534.993 456.74 535.232 456.941 535.51 457.07C536.271 457.481 537.125 457.688 537.99 457.67C538.857 457.686 539.715 457.48 540.48 457.07C540.758 456.941 540.996 456.74 541.172 456.489C541.348 456.238 541.454 455.945 541.48 455.64V320.47H534.51Z" fill="url(#paint32_linear_315_74)"/>
<path d="M562.94 320.64L519.72 345.59C516.08 347.7 513.13 345.47 513.13 340.59V293.06C513.13 288.2 516.13 282.56 519.72 280.46L562.94 255.46C566.59 253.36 569.54 255.59 569.54 260.46V308C569.54 312.9 566.59 318.54 562.94 320.64Z" fill="#F6F6FB"/>
<path d="M516.52 338.94V290.8C516.541 289.514 516.863 288.251 517.461 287.112C518.058 285.973 518.914 284.989 519.96 284.24L562.71 259.56C564.6 258.47 566.14 259.63 566.14 262.16V310.3C566.14 312.82 564.61 315.76 562.71 316.85L520 341.54C518.06 342.63 516.52 341.47 516.52 338.94Z" fill="#807DFB"/>
<path d="M549 278.71C549.957 278.585 550.93 278.703 551.83 279.052C552.73 279.402 553.528 279.972 554.15 280.71C555.35 282.17 555.95 284.373 555.95 287.32C555.937 290.298 555.325 293.243 554.15 295.98C552.909 298.901 551.166 301.581 549 303.9C546.704 306.389 544.039 308.51 541.1 310.19L533.23 314.73V326.35L526.76 330.09V289.82L541.1 281.54C543.487 280.016 546.187 279.049 549 278.71ZM547.23 298.25C548.66 296.125 549.423 293.621 549.42 291.06C549.42 288.493 548.69 286.94 547.23 286.4C545.77 285.87 543.63 286.4 540.8 288.04L533.23 292.41V308.41L540.8 304.04C543.363 302.643 545.56 300.659 547.21 298.25H547.23Z" fill="white"/>
<path d="M513.13 340.61V293.06C513.13 288.2 516.13 282.56 519.72 280.46L562.94 255.46C563.561 255.023 564.29 254.764 565.048 254.711C565.806 254.658 566.564 254.814 567.24 255.16L563.91 253.23C563.235 252.884 562.478 252.729 561.721 252.784C560.965 252.839 560.238 253.1 559.62 253.54L516.39 278.49C512.75 280.59 509.8 286.23 509.8 291.09V338.64C509.8 341.33 510.73 343.18 512.16 343.97L515.5 345.9C514.05 345.15 513.13 343.3 513.13 340.61Z" fill="url(#paint33_linear_315_74)"/>
<path style="mix-blend-mode:multiply" d="M1387.64 903.27H1289.05L1387.96 960.4L1289.05 1017.49H1387.64L1486.55 960.4L1387.64 903.27Z" fill="url(#paint34_linear_315_74)"/>
<path d="M1289.05 960.42L1190.18 903.34V960.41L1289.05 1017.49V960.42Z" fill="#CED3F8"/>
<path d="M1387.9 902.89L1289.05 960.41V1017.49L1387.9 959.96V902.89Z" fill="#BBC0E6"/>
<path d="M1190.18 903.34L1289.05 845.81L1387.9 902.89L1289.05 960.41L1190.18 903.34Z" fill="#F6F6FB"/>
<g style="mix-blend-mode:multiply">
<path d="M1233.07 949.07L1246.16 956.64V971.76L1233.07 964.2V949.07Z" fill="#DAE0F5"/>
</g>
<g style="mix-blend-mode:multiply">
<path d="M1345.03 949.07L1331.93 956.64V971.76L1345.03 964.2V949.07Z" fill="#DAE0F5"/>
</g>
<path style="mix-blend-mode:multiply" d="M738.53 598.92C737.68 598.92 736.81 598.86 735.87 598.86C723.75 598.86 709.01 601.7 702.95 605.19C699.95 606.94 699.64 608.53 701.62 609.67C702.251 610.018 702.923 610.287 703.62 610.47C703.12 610.71 702.62 610.95 702.21 611.2C699.21 612.95 698.9 614.53 700.88 615.67C702.86 616.81 707.13 617.53 713.18 617.53C721.741 617.479 730.259 616.337 738.53 614.13V598.92Z" fill="url(#paint35_linear_315_74)"/>
<path style="mix-blend-mode:multiply" d="M648.26 546.56C647.41 546.56 646.54 546.56 645.6 546.56C633.48 546.56 618.74 549.39 612.68 552.89C609.68 554.64 609.37 556.22 611.35 557.37C611.981 557.718 612.653 557.987 613.35 558.17C612.85 558.41 612.35 558.65 611.94 558.89C608.94 560.64 608.63 562.23 610.61 563.37C612.59 564.51 616.86 565.23 622.91 565.23C631.471 565.181 639.99 564.035 648.26 561.82V546.56Z" fill="url(#paint36_linear_315_74)"/>
<path d="M600.52 536.32L590.54 542.08V530.98L600.52 525.21V536.32Z" fill="#362E94"/>
<path d="M691.23 588.69L681.25 594.46V583.35L691.23 577.59V588.69Z" fill="#362E94"/>
<path d="M701.85 615.31C703.85 614.16 705.07 611.7 705.07 608.21C705.07 601.21 700.15 592.7 694.07 589.21C691.07 587.46 688.3 587.29 686.31 588.44C684.32 589.59 683.1 592.05 683.1 595.54C683.1 602.54 688.01 611.05 694.1 614.54C697.13 616.29 699.87 616.45 701.85 615.31Z" fill="#1E1C6B"/>
<path d="M700.14 605.36C700.029 603.267 699.428 601.229 698.386 599.411C697.344 597.592 695.889 596.044 694.14 594.89C690.8 592.97 688.14 594.53 688.14 598.38C688.248 600.474 688.848 602.512 689.89 604.331C690.933 606.15 692.388 607.698 694.14 608.85C697.43 610.77 700.14 609.21 700.14 605.36Z" fill="#BBC0E6"/>
<path d="M705.07 608.21C705.07 601.21 700.16 592.7 694.07 589.21C691.07 587.46 688.3 587.29 686.31 588.44L694.71 583.59C696.71 582.45 699.44 582.59 702.47 584.36C708.53 587.86 713.47 596.36 713.47 603.36C713.47 606.86 712.24 609.31 710.25 610.46L701.86 615.31C703.84 614.16 705.07 611.7 705.07 608.21Z" fill="#121244"/>
<path d="M611.14 562.94C613.14 561.79 614.36 559.33 614.36 555.83C614.36 548.83 609.44 540.33 603.36 536.83C600.36 535.08 597.59 534.91 595.6 536.06C593.61 537.21 592.39 539.66 592.39 543.16C592.39 550.16 597.3 558.67 603.39 562.16C606.41 563.92 609.15 564.08 611.14 562.94Z" fill="#1E1C6B"/>
<path d="M609.42 553C609.312 550.906 608.713 548.867 607.67 547.048C606.628 545.229 605.172 543.681 603.42 542.53C600.08 540.6 597.42 542.16 597.42 546.01C597.526 548.104 598.125 550.144 599.167 551.963C600.21 553.782 601.667 555.33 603.42 556.48C606.72 558.4 609.42 556.84 609.42 553Z" fill="#BBC0E6"/>
<path d="M614.36 555.83C614.36 548.83 609.44 540.33 603.36 536.83C600.36 535.07 597.59 534.91 595.6 536.06L604 531.21C606 530.06 608.73 530.21 611.76 531.98C617.82 535.47 622.76 543.98 622.76 550.98C622.76 554.48 621.54 556.98 619.55 558.09L611.16 562.94C613.13 561.79 614.36 559.33 614.36 555.83Z" fill="#121244"/>
<path d="M595.62 522.42L659.99 485.26L645.341 476.8L580.98 513.96L595.62 522.42Z" fill="#5652CC"/>
<path d="M715.75 614.37L780.11 577.21V554.62L715.75 591.77V614.37Z" fill="#362E94"/>
<path d="M715.75 591.77L780.11 554.62L741.19 532.14L676.83 569.3L715.75 591.77Z" fill="#5652CC"/>
<path d="M676.83 569.3L741.19 532.14L724.83 492.92L660.47 530.08L676.83 569.3Z" fill="#362E94"/>
<path d="M660.47 530.08L724.83 492.92L680.98 467.6L616.62 504.76L660.47 530.08Z" fill="#5652CC"/>
<path d="M676.83 569.3L660.47 530.07L616.62 504.76L595.62 522.42L581 514V536.6L590.56 542.12C590.56 533.93 596.31 530.61 603.4 534.7C610.49 538.79 616.25 548.76 616.25 556.95L681.25 594.49C681.25 586.3 687 582.98 694.1 587.08C701.2 591.18 706.94 601.13 706.94 609.33L715.75 614.41V591.81L676.83 569.3Z" fill="#423EAF"/>
<path d="M604.27 527.41L635.859 545.65V519.72L617.58 509.17L604.27 527.41ZM658.469 532.78L640.24 522.25V548.18L673.4 567.32L658.469 532.78Z" fill="url(#paint37_linear_315_74)"/>
<path d="M679.88 567.54L737.99 533.99L723.15 498.01L665.04 531.56L679.88 567.54Z" fill="url(#paint38_linear_315_74)"/>
<path style="mix-blend-mode:screen" d="M668.38 539.47L679.88 567.54L737.99 533.99L735.99 529.14L711.13 514.79L668.38 539.47Z" fill="url(#paint39_linear_315_74)"/>
<path d="M715.75 615.93L782.82 577.21V566.73L715.75 605.45V615.93Z" fill="#BBC0E6"/>
<path d="M707.67 611.27L715.75 615.93V605.45L707.67 600.78V611.27Z" fill="#CED3F8"/>
<path d="M709.02 600L715.75 603.89L780.11 566.73V565.16L782.82 566.73L715.75 605.45L707.67 600.78L709.02 600Z" fill="#F6F6FB"/>
<path d="M578.27 536.56L587.53 541.9V531.42L578.27 526.07V536.56Z" fill="#CED3F8"/>
<path d="M587.53 541.9L588.88 541.12V530.64L587.53 531.42V541.9Z" fill="#BBC0E6"/>
<path d="M588.88 530.64L580.979 526.08V524.51L578.27 526.07L587.53 531.42L588.88 530.64Z" fill="#F6F6FB"/>
<path d="M648.51 557.69C648.504 557.272 648.399 556.861 648.205 556.491C648.01 556.121 647.731 555.802 647.39 555.56L643 553C642.866 552.914 642.709 552.869 642.55 552.87C642.271 552.881 642.003 552.985 641.791 553.167C641.579 553.348 641.434 553.596 641.38 553.87C641.289 554.257 641.32 554.663 641.469 555.031C641.617 555.4 641.876 555.714 642.21 555.93C644.34 557.21 645.94 558.13 646.63 558.53C646.797 558.659 646.996 558.74 647.206 558.764C647.415 558.789 647.628 558.757 647.82 558.671C648.013 558.585 648.179 558.448 648.3 558.275C648.422 558.103 648.494 557.9 648.51 557.69Z" fill="#6B67E9"/>
<path d="M641.36 554.25C641.331 554.593 641.398 554.937 641.554 555.245C641.709 555.552 641.947 555.81 642.24 555.99C644.37 557.27 645.97 558.19 646.66 558.59C648.03 559.39 648.57 558.27 648.51 557.69C648.492 557.398 648.438 557.109 648.35 556.83C648.339 557.026 648.279 557.215 648.177 557.383C648.074 557.55 647.932 557.689 647.763 557.788C647.594 557.887 647.403 557.942 647.207 557.95C647.011 557.957 646.816 557.916 646.64 557.83C646.28 557.65 643.2 555.99 642.57 555.57C642.038 555.268 641.615 554.806 641.36 554.25Z" fill="#5652CC"/>
<path d="M762.11 575.23L733.76 591.59C732.4 592.38 731.29 591.74 731.29 590.17C731.337 589.314 731.585 588.482 732.014 587.74C732.443 586.998 733.042 586.367 733.76 585.9L762.11 569.53C763.47 568.74 764.57 569.38 764.57 570.95C764.525 571.807 764.279 572.64 763.851 573.384C763.424 574.128 762.827 574.76 762.11 575.23Z" fill="#234072"/>
<path d="M720.29 573L747.59 557.24L745.18 555.85L722.7 568.82L720.29 573Z" fill="#362E94"/>
<path d="M720.25 541.45L745.18 555.85L722.7 568.82L697.77 554.43L720.25 541.45Z" fill="#6B67E9"/>
<path style="mix-blend-mode:screen" d="M695.31 527.06L720.25 541.45L697.77 554.43L672.84 540.03L695.31 527.06Z" fill="url(#paint40_linear_315_74)"/>
<path style="mix-blend-mode:screen" d="M672.839 540.035L670.429 544.209L695.362 558.604L697.772 554.43L672.839 540.035Z" fill="url(#paint41_linear_315_74)"/>
<path d="M699.959 551.597L697.549 555.791L722.596 570.186L725.006 565.992L699.959 551.597Z" fill="#423EAF"/>
<g style="mix-blend-mode:multiply">
<path d="M720.33 596.23C720.378 595.282 720.651 594.359 721.126 593.536C721.6 592.714 722.263 592.016 723.06 591.5C724.57 590.63 725.79 591.34 725.79 593.08C725.74 594.026 725.467 594.948 724.992 595.768C724.518 596.588 723.856 597.285 723.06 597.8C721.55 598.67 720.33 598 720.33 596.23Z" fill="#DFE4F4"/>
</g>
<path d="M726 591.84L726.66 590.69L725.66 590.14C725.351 589.999 725.011 589.943 724.674 589.976C724.337 590.01 724.014 590.132 723.74 590.33C722.944 590.845 722.282 591.542 721.808 592.362C721.333 593.182 721.06 594.104 721.01 595.05C720.976 595.389 721.032 595.732 721.172 596.042C721.313 596.353 721.532 596.621 721.81 596.82L722.81 597.37L723.48 596.21C724.192 595.708 724.786 595.057 725.221 594.303C725.656 593.548 725.922 592.708 726 591.84Z" fill="url(#paint42_linear_315_74)"/>
<path d="M722.06 595.61C722.107 594.663 722.378 593.74 722.851 592.918C723.324 592.096 723.985 591.397 724.78 590.88C726.29 590.01 727.51 590.72 727.51 592.46C727.46 593.406 727.186 594.328 726.712 595.148C726.237 595.968 725.575 596.665 724.78 597.18C723.28 598.05 722.06 597.35 722.06 595.61Z" fill="#F6F6FB"/>
<path style="mix-blend-mode:multiply" d="M607.36 502.3L597 508.29V514.44H605.12L607.36 512.55V502.3Z" fill="url(#paint43_linear_315_74)"/>
<path style="mix-blend-mode:multiply" d="M648.43 478.59L644.52 480.85V487H647.38L655.19 482.49L648.43 478.59Z" fill="url(#paint44_linear_315_74)"/>
<path d="M598.64 513.49L597 514.44V508.29L598.64 507.34V513.49Z" fill="#362E94"/>
<path d="M597 514.44L587.28 508.82V502.67L597 508.29V514.44Z" fill="#234072"/>
<path d="M646.159 486.05L644.52 487V480.85L646.159 479.9V486.05Z" fill="#362E94"/>
<path d="M644.52 487L634.8 481.39V475.24L644.52 480.85V487Z" fill="#234072"/>
<path d="M591.18 508.43L581.47 502.82L642.25 467.73L651.97 473.34L591.18 508.43Z" fill="#FFD03E"/>
<path d="M653.76 466.52L644.04 460.91L645.43 460.11L655.15 465.72L653.76 466.52Z" fill="#E2C08E"/>
<path d="M588.01 504.49L578.29 498.88L579.68 498.07L589.4 503.68L588.01 504.49Z" fill="#E2C08E"/>
<path d="M589.4 512.67L579.68 507.06L578.29 498.88L588.01 504.49L589.4 512.67Z" fill="#FCBA06"/>
<path d="M651.97 473.34L642.25 467.73L644.04 460.91L653.76 466.52L651.97 473.34Z" fill="#FCBA06"/>
<path d="M589.4 503.68L591.18 508.43L651.97 473.34L653.76 466.52L655.15 465.72L653.76 475.51L589.4 512.67L588.01 504.49L589.4 503.68Z" fill="#DC8B00"/>
<g style="mix-blend-mode:multiply">
<path d="M768.56 568.39C768.608 567.442 768.881 566.519 769.355 565.696C769.83 564.874 770.493 564.176 771.29 563.66C772.79 562.79 774.01 563.5 774.01 565.24C773.961 566.186 773.689 567.106 773.216 567.926C772.743 568.747 772.083 569.444 771.29 569.96C769.78 570.83 768.56 570.13 768.56 568.39Z" fill="#DFE4F4"/>
</g>
<path d="M774.26 564L774.93 562.85L773.98 562.3C773.671 562.159 773.33 562.103 772.993 562.138C772.655 562.173 772.333 562.298 772.06 562.5C771.264 563.015 770.602 563.712 770.128 564.532C769.653 565.352 769.38 566.273 769.33 567.22C769.293 567.557 769.346 567.898 769.485 568.208C769.624 568.517 769.843 568.784 770.12 568.98L771.12 569.53L771.78 568.37C772.485 567.864 773.071 567.211 773.499 566.457C773.928 565.703 774.187 564.864 774.26 564Z" fill="url(#paint45_linear_315_74)"/>
<path d="M770.28 567.77C770.321 566.816 770.589 565.885 771.063 565.056C771.536 564.226 772.2 563.521 773 563C774.5 562.13 775.73 562.84 775.73 564.58C775.68 565.526 775.407 566.448 774.932 567.268C774.458 568.088 773.796 568.785 773 569.3C771.5 570.21 770.28 569.51 770.28 567.77Z" fill="#F6F6FB"/>
<g style="mix-blend-mode:multiply">
<path d="M715.75 603.89H718.46L782.82 566.73L780.11 565.16V566.73L715.75 603.89Z" fill="#DFE4F4"/>
</g>
<path style="mix-blend-mode:multiply" d="M676.83 569.3L710.46 567.32L712.51 562.94L738.73 559.57L745.18 555.85L743.05 554.62L771.29 549.52L741.19 532.14L722.7 542.87L720.25 541.45L697.77 554.43L695.36 558.6L676.83 569.3Z" fill="url(#paint46_linear_315_74)"/>
<path style="mix-blend-mode:multiply" d="M482.18 757.05C481.26 757.05 480.31 756.99 479.3 756.99C466.12 756.99 450.12 760.07 443.54 763.87C440.25 765.77 439.94 767.49 442.09 768.73C442.777 769.111 443.509 769.403 444.27 769.6C443.72 769.86 443.2 770.12 442.73 770.39C439.44 772.29 439.13 774.01 441.28 775.25C443.43 776.49 448.07 777.25 454.65 777.25C463.947 777.196 473.198 775.952 482.18 773.55V757.05Z" fill="url(#paint47_linear_315_74)"/>
<path style="mix-blend-mode:multiply" d="M377.33 697C376.41 697 375.46 696.94 374.45 696.94C361.28 696.94 345.27 700.02 338.69 703.82C335.4 705.72 335.09 707.44 337.24 708.69C337.93 709.061 338.662 709.35 339.42 709.55C338.87 709.81 338.35 710.07 337.89 710.34C334.6 712.24 334.29 713.96 336.44 715.2C338.59 716.44 343.22 717.2 349.8 717.2C359.097 717.146 368.349 715.902 377.33 713.5V697Z" fill="url(#paint48_linear_315_74)"/>
<path d="M331.63 686.2L320.79 692.46V680.4L331.63 674.14V686.2Z" fill="#131147"/>
<path d="M436.27 746.62L425.43 752.87V740.81L436.27 734.55V746.62Z" fill="#131147"/>
<path d="M447.81 775.53C449.97 774.28 451.3 771.61 451.3 767.81C451.3 760.21 445.96 750.97 439.38 747.17C436.09 745.27 433.12 745.08 430.96 746.33C428.8 747.58 427.47 750.25 427.47 754.05C427.47 761.65 432.8 770.89 439.38 774.69C442.68 776.59 445.65 776.77 447.81 775.53Z" fill="#0E1C70"/>
<path d="M445.94 764.72C445.82 762.442 445.163 760.225 444.023 758.249C442.883 756.273 441.292 754.594 439.38 753.35C435.76 751.26 432.82 752.95 432.82 757.14C432.946 759.417 433.605 761.632 434.744 763.607C435.884 765.583 437.472 767.262 439.38 768.51C443 770.6 445.94 768.91 445.94 764.72Z" fill="#CED3F8"/>
<path d="M451.3 767.81C451.3 760.21 445.97 750.97 439.38 747.17C436.09 745.26 433.12 745.08 430.96 746.33L440.08 741.06C442.23 739.82 445.22 740 448.51 741.9C455.09 745.7 460.42 754.9 460.42 762.55C460.42 766.34 459.09 769.02 456.93 770.26L447.81 775.53C450 774.28 451.3 771.61 451.3 767.81Z" fill="#110D60"/>
<path d="M343.16 715.11C345.32 713.86 346.65 711.2 346.65 707.4C346.65 699.79 341.32 690.55 334.73 686.75C331.45 684.85 328.47 684.67 326.31 685.92C324.15 687.17 322.82 689.83 322.82 693.63C322.82 701.24 328.15 710.48 334.73 714.28C338 716.18 341 716.36 343.16 715.11Z" fill="#0E1C70"/>
<path d="M341.3 704.3C341.175 702.022 340.515 699.805 339.374 697.83C338.232 695.854 336.641 694.176 334.73 692.93C331.11 690.84 328.17 692.54 328.17 696.72C328.293 698.997 328.951 701.214 330.091 703.189C331.23 705.165 332.82 706.844 334.73 708.09C338.36 710.19 341.3 708.49 341.3 704.3Z" fill="#CED3F8"/>
<path d="M346.65 707.4C346.65 699.79 341.32 690.55 334.73 686.75C331.45 684.85 328.47 684.67 326.31 685.92L335.43 680.65C337.59 679.4 340.57 679.58 343.86 681.48C350.44 685.28 355.78 694.48 355.78 702.13C355.78 705.93 354.44 708.6 352.29 709.84L343.17 715.11C345.32 713.86 346.65 711.2 346.65 707.4Z" fill="#110D60"/>
<path d="M343.93 676.49L413.84 636.13L381.19 617.28L311.29 657.64L343.93 676.49Z" fill="#CED3F8"/>
<path d="M463.79 775.02L533.7 734.66V705.33L463.79 745.69V775.02Z" fill="#A3A9D0"/>
<path d="M463.79 745.69L533.7 705.33L467.89 667.33L397.98 707.7L463.79 745.69Z" fill="#DFE4F4"/>
<path d="M418.85 715.85L464.26 689.64L464.52 669.28L401.35 705.75L418.85 715.85Z" fill="#A3A9D0"/>
<path d="M463.99 741.91L509.39 715.7L464.26 689.64L418.85 715.85L463.99 741.91Z" fill="#CED3F8"/>
<path d="M464.26 689.64L509.39 715.7L527.16 705.44L464.52 669.28L464.26 689.64Z" fill="#BBC0E6"/>
<path d="M397.98 707.7L467.89 667.33V634.98L397.98 675.35V707.7Z" fill="#A3A9D0"/>
<path d="M397.98 675.35L467.89 634.98L424.12 609.71L354.21 650.07L397.98 675.35Z" fill="#DFE4F4"/>
<path d="M398 707.7V675.35L354.23 650.07L343.95 676.49L311.31 657.64V687L320.81 692.49C320.81 683.59 327.05 679.98 334.76 684.43C342.47 688.88 348.71 699.7 348.71 708.6L425.45 752.9C425.45 744.01 431.7 740.4 439.4 744.9C447.1 749.4 453.35 760.17 453.35 769.06L463.81 775.06V745.69L398 707.7Z" fill="#BBC0E6"/>
<path d="M402.35 700.81L463.53 665.49V642.2L402.35 677.52V700.81Z" fill="url(#paint49_linear_315_74)"/>
<path d="M463.79 776.72L536.64 734.66V723.27L463.79 765.33V776.72Z" fill="#BBC0E6"/>
<path d="M456.48 759.41L463.79 763.63L533.7 723.27V721.57L536.64 723.27L463.79 765.33L455.01 760.26L456.48 759.41Z" fill="#F6F6FB"/>
<path d="M455.01 771.65L463.79 776.72V765.33L455.01 760.26V771.65Z" fill="#CED3F8"/>
<path d="M308.35 686.97L317.13 692.04V680.65L308.35 675.58V686.97Z" fill="#CED3F8"/>
<path d="M317.13 692.04L318.6 691.19V679.8L317.13 680.65V692.04Z" fill="#BBC0E6"/>
<path d="M318.6 679.8L311.29 675.58V673.89L308.35 675.58L317.13 680.65L318.6 679.8Z" fill="#F6F6FB"/>
<path d="M377.75 701C377.742 700.546 377.629 700.1 377.419 699.697C377.209 699.294 376.908 698.946 376.54 698.68L371.79 696C371.647 695.906 371.48 695.857 371.31 695.86C371.003 695.871 370.709 695.988 370.478 696.19C370.247 696.392 370.092 696.667 370.04 696.97C369.938 697.39 369.97 697.83 370.129 698.231C370.289 698.632 370.568 698.974 370.93 699.21C373.26 700.59 374.99 701.6 375.74 702.03C375.929 702.166 376.153 702.247 376.385 702.264C376.618 702.282 376.851 702.235 377.059 702.128C377.266 702.022 377.441 701.86 377.563 701.661C377.684 701.462 377.749 701.233 377.75 701Z" fill="#6B67E9"/>
<path d="M370 697.28C369.971 697.652 370.043 698.025 370.209 698.359C370.374 698.694 370.627 698.977 370.94 699.18C373.27 700.56 375 701.57 375.75 702C377.24 702.86 377.82 701.65 377.75 701C377.729 700.685 377.672 700.373 377.58 700.07C377.565 700.281 377.498 700.486 377.386 700.666C377.274 700.846 377.119 700.996 376.936 701.103C376.753 701.21 376.547 701.271 376.335 701.281C376.124 701.291 375.913 701.25 375.72 701.16C375.33 700.96 371.98 699.16 371.3 698.7C370.727 698.378 370.271 697.88 370 697.28Z" fill="#5652CC"/>
<path d="M472 756.04L484.89 748.6V744.9L472 752.34V756.04Z" fill="#FFA4B5"/>
<path d="M470.53 755.19L472 756.04V752.34L470.53 751.49V755.19Z" fill="#E33C5C"/>
<path d="M470.53 751.49L472 752.34L484.89 744.9L483.42 744.05L470.53 751.49Z" fill="#FF5A72"/>
<path d="M515.54 730.9L528.43 723.46V719.76L515.54 727.2V730.9Z" fill="#FFA4B5"/>
<path d="M514.07 730.05L515.54 730.9V727.2L514.07 726.35V730.05Z" fill="#E33C5C"/>
<path d="M514.07 726.35L515.54 727.2L528.43 719.76L526.96 718.91L514.07 726.35Z" fill="#FF5A72"/>
<path d="M347.66 678.64L379.39 697V668.8L356.61 655.65L347.66 678.64ZM384.15 671.55V693.61L391.82 698.04V676L384.15 671.55Z" fill="url(#paint50_linear_315_74)"/>
<path d="M463.79 763.63H466.73L536.64 723.27L533.7 721.57V723.27L463.79 763.63Z" fill="#DFE4F4"/>
<g style="mix-blend-mode:multiply">
<path d="M318.6 679.8L319.91 681.97V691.95L318.6 691.19V679.8Z" fill="#DFE4F4"/>
</g>
<path style="mix-blend-mode:multiply" d="M464.52 669.28L467.89 667.33L485.39 677.44L482.02 679.38L464.52 669.28Z" fill="url(#paint51_linear_315_74)"/>
<path style="mix-blend-mode:multiply" d="M418.85 715.85L464.26 689.64L489.22 704.05L443.82 730.27L418.85 715.85Z" fill="url(#paint52_linear_315_74)"/>
<path style="mix-blend-mode:multiply" d="M489.22 704.05L482.02 679.38L464.52 669.28L464.26 689.64L489.22 704.05Z" fill="url(#paint53_linear_315_74)"/>
<path style="mix-blend-mode:multiply" d="M401.35 705.75L397.98 707.7H404.72L401.35 705.75Z" fill="url(#paint54_linear_315_74)"/>
<path style="mix-blend-mode:multiply" d="M859.7 523C858.85 523 857.97 522.94 857.04 522.94C844.87 522.94 830.09 525.79 824.04 529.3C821.04 531.05 820.72 532.64 822.7 533.79C823.332 534.136 824.004 534.405 824.7 534.59C824.19 534.83 823.7 535.07 823.28 535.32C820.28 537.08 819.95 538.66 821.94 539.81C823.93 540.96 828.21 541.68 834.28 541.68C842.868 541.628 851.414 540.479 859.71 538.26L859.7 523Z" fill="url(#paint55_linear_315_74)"/>
<path style="mix-blend-mode:multiply" d="M779.17 476.38C778.32 476.38 777.44 476.32 776.51 476.32C764.34 476.32 749.51 479.17 743.51 482.68C740.51 484.43 740.19 486.02 742.17 487.17C742.802 487.516 743.474 487.784 744.17 487.97C743.67 488.21 743.17 488.45 742.76 488.7C739.76 490.45 739.43 492.04 741.42 493.19C743.41 494.34 747.69 495.06 753.76 495.06C762.348 495.008 770.894 493.859 779.19 491.64L779.17 476.38Z" fill="url(#paint56_linear_315_74)"/>
<path d="M736.95 466.49L726.94 472.27V461.13L736.95 455.35V466.49Z" fill="#131147"/>
<path d="M819.06 513.89L809.05 519.67V508.53L819.06 502.75V513.89Z" fill="#131147"/>
<path d="M829.71 540.6C831.71 539.44 832.94 536.98 832.94 533.47C832.94 526.47 828.01 517.91 821.94 514.4C818.94 512.65 816.15 512.48 814.16 513.63C812.17 514.78 810.94 517.24 810.94 520.76C810.94 527.76 815.86 536.31 821.94 539.82C825 541.58 827.72 541.74 829.71 540.6Z" fill="#1E1C6B"/>
<path d="M828 530.61C827.886 528.507 827.278 526.46 826.225 524.635C825.172 522.811 823.704 521.261 821.94 520.11C818.59 518.18 815.88 519.75 815.88 523.61C815.994 525.713 816.602 527.76 817.655 529.585C818.707 531.409 820.176 532.959 821.94 534.11C825.28 536 828 534.48 828 530.61Z" fill="#BBC0E6"/>
<path d="M832.94 533.47C832.94 526.47 828.01 517.91 821.94 514.4C818.94 512.64 816.15 512.48 814.16 513.63L822.58 508.76C824.58 507.61 827.33 507.76 830.37 509.53C836.45 513.04 841.37 521.58 841.37 528.61C841.37 532.11 840.13 534.61 838.14 535.73L829.72 540.6C831.71 539.44 832.94 537 832.94 533.47Z" fill="#121244"/>
<path d="M747.6 493.19C749.6 492.04 750.83 489.57 750.83 486.07C750.83 479.07 745.9 470.51 739.83 467C736.83 465.24 734.04 465.07 732.05 466.22C730.06 467.37 728.83 469.84 728.83 473.35C728.83 480.35 733.75 488.91 739.83 492.42C742.86 494.17 745.61 494.34 747.6 493.19Z" fill="#1E1C6B"/>
<path d="M745.88 483.21C745.768 481.106 745.16 479.059 744.107 477.234C743.054 475.41 741.585 473.86 739.82 472.71C736.47 470.77 733.76 472.34 733.76 476.21C733.874 478.313 734.483 480.36 735.535 482.184C736.588 484.008 738.056 485.559 739.82 486.71C743.17 488.64 745.88 487.08 745.88 483.21Z" fill="#BBC0E6"/>
<path d="M750.83 486.07C750.83 479.07 745.9 470.51 739.83 467C736.83 465.24 734.04 465.07 732.05 466.22L740.47 461.36C742.47 460.21 745.22 460.36 748.26 462.13C754.34 465.64 759.26 474.18 759.26 481.2C759.26 484.71 758.03 487.2 756.04 488.33L747.62 493.19C749.6 492 750.83 489.57 750.83 486.07Z" fill="#121244"/>
<path d="M748.32 461.94L812.88 424.66L782.73 407.25L718.16 444.53L748.32 461.94Z" fill="#423EAF"/>
<path d="M844.47 540.13L909.04 502.85V480.18L844.47 517.46V540.13Z" fill="#423EAF"/>
<path d="M844.47 517.46L909.04 480.18L882.77 465.01L818.21 502.29L844.47 517.46Z" fill="#5652CC"/>
<path d="M818.21 502.29L882.77 465.01L873.22 429.62L808.65 466.9L818.21 502.29Z" fill="#423EAF"/>
<path d="M808.65 466.9L873.22 429.62L822.38 400.26L757.81 437.54L808.65 466.9Z" fill="#5652CC"/>
<path d="M818.21 502.29L808.65 466.9L757.81 437.54L748.32 461.94L718.16 444.53V467.2L726.94 472.27C726.94 464.05 732.71 460.72 739.82 464.83C746.93 468.94 752.71 478.93 752.71 487.15L809.05 519.67C809.05 511.45 814.82 508.12 821.93 512.23C829.04 516.34 834.82 526.33 834.82 534.55L844.47 540.13V517.46L818.21 502.29Z" fill="#362E94"/>
<path d="M751.76 463.93L781.06 480.85V454.85L760.06 442.7L751.76 463.93ZM806.45 469.49L785.45 457.38V483.38L814.75 500.29L806.45 469.49Z" fill="url(#paint57_linear_315_74)"/>
<path d="M821.27 500.52L879.57 466.87L870.91 434.8L812.61 468.46L821.27 500.52Z" fill="url(#paint58_linear_315_74)"/>
<path d="M844.47 541.69L911.76 502.85V492.33L844.47 531.17V541.69Z" fill="#CED3F8"/>
<path d="M837.72 525.71L844.47 529.61L909.04 492.33V490.76L911.76 492.33L844.47 531.17L836.37 526.49L837.72 525.71Z" fill="#F6F6FB"/>
<path d="M836.37 537.01L844.47 541.69V531.17L836.37 526.49V537.01Z" fill="#BBC0E6"/>
<path d="M715.45 467.2L723.56 471.88V461.36L715.45 456.68V467.2Z" fill="#BBC0E6"/>
<path d="M723.56 471.88L724.91 471.1V460.58L723.56 461.36V471.88Z" fill="#CED3F8"/>
<path d="M724.91 460.58L718.16 456.68V455.11L715.45 456.68L723.56 461.36L724.91 460.58Z" fill="#F6F6FB"/>
<path d="M779.55 484.59C779.543 484.171 779.438 483.759 779.244 483.387C779.049 483.016 778.771 482.695 778.43 482.45L774.05 479.93C773.917 479.84 773.76 479.795 773.6 479.8C773.321 479.811 773.053 479.915 772.841 480.096C772.629 480.278 772.484 480.526 772.43 480.8C772.335 481.186 772.363 481.592 772.51 481.961C772.657 482.33 772.916 482.645 773.25 482.86C775.4 484.14 777 485.07 777.69 485.47C777.86 485.595 778.06 485.671 778.27 485.691C778.48 485.711 778.691 485.674 778.882 485.584C779.073 485.494 779.235 485.354 779.353 485.179C779.47 485.004 779.538 484.8 779.55 484.59Z" fill="#807DFB"/>
<path d="M772.38 481.14C772.353 481.483 772.419 481.827 772.573 482.135C772.726 482.444 772.96 482.704 773.25 482.89C775.4 484.17 777 485.1 777.69 485.5C779.07 486.3 779.6 485.17 779.55 484.59C779.527 484.302 779.474 484.017 779.39 483.74C779.376 483.935 779.315 484.123 779.212 484.289C779.109 484.454 778.967 484.593 778.799 484.691C778.63 484.79 778.44 484.846 778.245 484.854C778.05 484.863 777.856 484.823 777.68 484.74C777.31 484.55 774.22 482.89 773.59 482.47C773.052 482.171 772.627 481.704 772.38 481.14Z" fill="#5652CC"/>
<path d="M812.65 503.7C812.64 503.281 812.534 502.87 812.34 502.499C812.146 502.128 811.868 501.806 811.53 501.56L807.15 499C807.016 498.912 806.859 498.866 806.7 498.87C806.42 498.881 806.153 498.985 805.941 499.167C805.728 499.348 805.583 499.596 805.53 499.87C805.435 500.256 805.463 500.662 805.61 501.031C805.757 501.4 806.015 501.715 806.35 501.93C808.5 503.21 810.1 504.14 810.79 504.54C810.958 504.66 811.154 504.734 811.36 504.754C811.566 504.775 811.773 504.74 811.961 504.655C812.15 504.57 812.312 504.437 812.433 504.27C812.554 504.102 812.629 503.906 812.65 503.7Z" fill="#807DFB"/>
<path d="M805.48 500.25C805.452 500.593 805.519 500.937 805.672 501.245C805.826 501.554 806.06 501.814 806.35 502C808.5 503.28 810.1 504.21 810.79 504.61C812.17 505.41 812.7 504.28 812.65 503.7C812.627 503.412 812.573 503.127 812.49 502.85C812.474 503.045 812.412 503.233 812.307 503.399C812.203 503.564 812.061 503.702 811.892 503.801C811.722 503.899 811.532 503.955 811.337 503.963C811.141 503.972 810.947 503.933 810.77 503.85C810.41 503.66 807.32 502 806.69 501.58C806.152 501.281 805.727 500.813 805.48 500.25Z" fill="#5652CC"/>
<g style="mix-blend-mode:multiply">
<path d="M892.27 499.38L889.56 500.93V497.26L890.91 495.18L892.27 499.38Z" fill="#DAE0F5"/>
</g>
<g style="mix-blend-mode:multiply">
<path d="M852.06 522.6L849.34 524.15V520.48L850.7 518.4L852.06 522.6Z" fill="#DAE0F5"/>
</g>
<path d="M852.06 522.6L863.96 515.72V512.31L852.06 519.18V522.6Z" fill="#FFA4B5"/>
<path d="M850.7 521.81L852.06 522.6V519.18L850.7 518.4V521.81Z" fill="#E33C5C"/>
<path d="M850.7 518.4L852.06 519.18L863.96 512.31L862.6 511.52L850.7 518.4Z" fill="#FF5A72"/>
<path d="M892.27 499.38L904.18 492.5V489.09L892.27 495.96V499.38Z" fill="#FFA4B5"/>
<path d="M890.92 498.59L892.27 499.38V495.96L890.91 495.18L890.92 498.59Z" fill="#E33C5C"/>
<path d="M890.91 495.18L892.27 495.96L904.18 489.09L902.82 488.3L890.91 495.18Z" fill="#FF5A72"/>
<path style="mix-blend-mode:screen" d="M813.14 470.4L821.27 500.52L879.57 466.87L878.38 462.48L852.62 447.6L813.14 470.4Z" fill="url(#paint59_linear_315_74)"/>
<path d="M844.47 529.61H841.76L836.37 526.49L837.72 525.71L844.47 529.61Z" fill="#DFE4F4"/>
<path d="M724.91 460.58H722.2L715.45 456.68L718.16 455.11V456.68L724.91 460.58Z" fill="#DFE4F4"/>
<path style="mix-blend-mode:multiply" d="M940.28 395.79L965.21 410.18C965.376 410.263 965.516 410.391 965.614 410.549C965.712 410.707 965.764 410.889 965.764 411.075C965.764 411.261 965.712 411.443 965.614 411.601C965.516 411.759 965.376 411.887 965.21 411.97L940.28 426.37C939.854 426.616 939.372 426.745 938.88 426.745C938.389 426.745 937.906 426.616 937.48 426.37L912.55 412C912.384 411.917 912.244 411.789 912.146 411.631C912.048 411.473 911.996 411.291 911.996 411.105C911.996 410.919 912.048 410.737 912.146 410.579C912.244 410.421 912.384 410.293 912.55 410.21L937.48 395.82C937.903 395.57 938.384 395.435 938.876 395.43C939.367 395.425 939.852 395.549 940.28 395.79Z" fill="url(#paint60_linear_315_74)"/>
<path d="M937.75 394.41L962.68 408.8C962.847 408.883 962.987 409.011 963.084 409.169C963.182 409.327 963.234 409.509 963.234 409.695C963.234 409.881 963.182 410.063 963.084 410.221C962.987 410.379 962.847 410.507 962.68 410.59L937.75 425C937.325 425.246 936.842 425.375 936.35 425.375C935.859 425.375 935.376 425.246 934.95 425L910 410.59C909.834 410.507 909.694 410.379 909.596 410.221C909.498 410.063 909.446 409.881 909.446 409.695C909.446 409.509 909.498 409.327 909.596 409.169C909.694 409.011 909.834 408.883 910 408.8L935 394.41C935.42 394.173 935.893 394.049 936.375 394.049C936.857 394.049 937.331 394.173 937.75 394.41Z" fill="#FFD03E"/>
<path d="M962.68 410.59L937.75 425C937.324 425.246 936.841 425.375 936.35 425.375C935.858 425.375 935.375 425.246 934.95 425L910 410.59C909.84 410.503 909.708 410.374 909.616 410.217C909.524 410.06 909.477 409.882 909.48 409.7V411.08C909.477 411.262 909.524 411.44 909.616 411.597C909.708 411.754 909.84 411.883 910 411.97L935 426.37C935.425 426.616 935.908 426.745 936.4 426.745C936.891 426.745 937.374 426.616 937.8 426.37L962.68 412C962.839 411.913 962.972 411.784 963.063 411.627C963.155 411.47 963.202 411.292 963.2 411.11V409.7C963.202 409.882 963.155 410.06 963.063 410.217C962.972 410.374 962.839 410.503 962.68 410.59Z" fill="url(#paint61_linear_315_74)"/>
<path style="mix-blend-mode:multiply" d="M936.35 419L951 417.35L962.69 410.59C962.856 410.507 962.996 410.379 963.094 410.221C963.192 410.063 963.244 409.881 963.244 409.695C963.244 409.509 963.192 409.327 963.094 409.169C962.996 409.011 962.856 408.883 962.69 408.8L949.77 401.34L936.35 419Z" fill="url(#paint62_linear_315_74)"/>
<path d="M952.19 409.39L943.66 381.15H929L920.5 409.36C920.451 409.428 920.417 409.506 920.4 409.588C920.383 409.67 920.384 409.755 920.401 409.837C920.419 409.919 920.454 409.997 920.504 410.064C920.554 410.132 920.617 410.188 920.69 410.23L935.47 418.77C935.723 418.913 936.009 418.988 936.3 418.988C936.591 418.988 936.876 418.913 937.13 418.77L952 410.23C952.136 410.144 952.233 410.007 952.268 409.849C952.304 409.692 952.276 409.527 952.19 409.39Z" fill="url(#paint63_linear_315_74)"/>
<path d="M936.73 377L943.52 380.92C943.564 380.943 943.601 380.977 943.627 381.019C943.653 381.062 943.667 381.11 943.667 381.16C943.667 381.21 943.653 381.258 943.627 381.301C943.601 381.343 943.564 381.377 943.52 381.4L936.73 385.32C936.615 385.389 936.484 385.425 936.35 385.425C936.216 385.425 936.085 385.389 935.97 385.32L929.19 381.4C929.146 381.377 929.109 381.343 929.083 381.301C929.058 381.258 929.044 381.21 929.044 381.16C929.044 381.11 929.058 381.062 929.083 381.019C929.109 380.977 929.146 380.943 929.19 380.92L936 377C936.112 376.937 936.237 376.904 936.365 376.904C936.493 376.904 936.619 376.937 936.73 377Z" fill="#FFD03E"/>
<path d="M948.1 395.86C948.105 395.82 948.105 395.78 948.1 395.74L947.59 394.07C947.589 394.139 947.57 394.207 947.535 394.266C947.5 394.326 947.45 394.375 947.39 394.41L936.97 400.41C936.792 400.513 936.591 400.567 936.385 400.567C936.18 400.567 935.978 400.513 935.8 400.41L925.37 394.41C925.314 394.375 925.267 394.327 925.233 394.269C925.2 394.211 925.182 394.146 925.18 394.08L924.68 395.72C924.646 395.771 924.623 395.829 924.612 395.89C924.601 395.95 924.602 396.013 924.616 396.073C924.63 396.133 924.657 396.189 924.693 396.238C924.73 396.288 924.777 396.329 924.83 396.36L935.77 402.67C935.957 402.778 936.169 402.835 936.385 402.835C936.601 402.835 936.813 402.778 937 402.67L947.93 396.36C948.014 396.313 948.08 396.239 948.118 396.15C948.156 396.062 948.164 395.963 948.14 395.87L948.1 395.86Z" fill="url(#paint64_linear_315_74)"/>
<defs>
<linearGradient id="paint0_linear_315_74" x1="228.84" y1="449.32" x2="763.97" y2="449.32" gradientUnits="userSpaceOnUse">
<stop stop-color="#CFD5F1"/>
<stop offset="1" stop-color="white"/>
</linearGradient>
<linearGradient id="paint1_linear_315_74" x1="244.23" y1="244.95" x2="330.3" y2="244.95" gradientUnits="userSpaceOnUse">
<stop stop-color="#D1D6F0"/>
<stop offset="0.98" stop-color="white"/>
</linearGradient>
<linearGradient id="paint2_linear_315_74" x1="674.86" y1="354.57" x2="759.56" y2="354.57" gradientUnits="userSpaceOnUse">
<stop stop-color="#C2C7E3"/>
<stop offset="0.27" stop-color="#D7DAED"/>
<stop offset="0.7" stop-color="#F4F5FA"/>
<stop offset="0.95" stop-color="white"/>
</linearGradient>
<linearGradient id="paint3_linear_315_74" x1="627.18" y1="316.07" x2="705.83" y2="270.66" gradientUnits="userSpaceOnUse">
<stop stop-color="#6B6ADE"/>
<stop offset="0.36" stop-color="#4C4BB0"/>
<stop offset="0.79" stop-color="#2B297E"/>
<stop offset="1" stop-color="#1E1C6B"/>
</linearGradient>
<linearGradient id="paint4_linear_315_74" x1="633.08" y1="286.15" x2="702.01" y2="246.35" gradientUnits="userSpaceOnUse">
<stop stop-color="#6B6ADE"/>
<stop offset="0.67" stop-color="#36348E"/>
<stop offset="1" stop-color="#1E1C6B"/>
</linearGradient>
<linearGradient id="paint5_linear_315_74" x1="637.64" y1="234.79" x2="712.08" y2="234.79" gradientUnits="userSpaceOnUse">
<stop stop-color="#7E7EEF"/>
<stop offset="0.33" stop-color="#6564CD"/>
<stop offset="1" stop-color="#34318B"/>
</linearGradient>
<linearGradient id="paint6_linear_315_74" x1="1000.31" y1="1066.4" x2="1111.52" y2="1066.4" gradientUnits="userSpaceOnUse">
<stop stop-color="#C2C7E3"/>
<stop offset="0.1" stop-color="#C9CEE6"/>
<stop offset="0.69" stop-color="#F0F1F8"/>
<stop offset="1" stop-color="white"/>
</linearGradient>
<radialGradient id="paint7_radial_315_74" cx="0" cy="0" r="1" gradientUnits="userSpaceOnUse" gradientTransform="translate(972.73 950.31) scale(84.72)">
<stop stop-color="#7E7EEF"/>
<stop offset="1" stop-color="#34318B"/>
</radialGradient>
<linearGradient id="paint8_linear_315_74" x1="919.5" y1="808.69" x2="959.98" y2="808.69" gradientUnits="userSpaceOnUse">
<stop stop-color="#C4CAE9"/>
<stop offset="1" stop-color="white"/>
</linearGradient>
<linearGradient id="paint9_linear_315_74" x1="1003.63" y1="759.14" x2="1044.12" y2="759.14" gradientUnits="userSpaceOnUse">
<stop stop-color="#C4CAE9"/>
<stop offset="1" stop-color="white"/>
</linearGradient>
<linearGradient id="paint10_linear_315_74" x1="1108.91" y1="528.46" x2="1149.39" y2="528.46" gradientUnits="userSpaceOnUse">
<stop stop-color="#C4CAE9"/>
<stop offset="1" stop-color="white"/>
</linearGradient>
<linearGradient id="paint11_linear_315_74" x1="1193.04" y1="478.91" x2="1233.53" y2="478.91" gradientUnits="userSpaceOnUse">
<stop stop-color="#C4CAE9"/>
<stop offset="1" stop-color="white"/>
</linearGradient>
<linearGradient id="paint12_linear_315_74" x1="1194.37" y1="459.32" x2="1136.28" y2="462.6" gradientUnits="userSpaceOnUse">
<stop stop-color="#362E94"/>
<stop offset="0.64" stop-color="#4A45B7"/>
<stop offset="0.99" stop-color="#5652CC"/>
</linearGradient>
<linearGradient id="paint13_linear_315_74" x1="1062.38" y1="457.4" x2="1131.82" y2="457.4" gradientUnits="userSpaceOnUse">
<stop offset="0.01" stop-color="#5652CC"/>
<stop offset="0.36" stop-color="#4A45B7"/>
<stop offset="1" stop-color="#362E94"/>
</linearGradient>
<linearGradient id="paint14_linear_315_74" x1="1107.72" y1="446.64" x2="1092.09" y2="473.72" gradientUnits="userSpaceOnUse">
<stop/>
<stop offset="1" stop-color="#5B3600"/>
</linearGradient>
<linearGradient id="paint15_linear_315_74" x1="1004.64" y1="741.73" x2="942.07" y2="746.54" gradientUnits="userSpaceOnUse">
<stop stop-color="#20196F"/>
<stop offset="0.02" stop-color="#15124C"/>
<stop offset="0.03" stop-color="#131147"/>
<stop offset="1" stop-color="#20196F"/>
</linearGradient>
<linearGradient id="paint16_linear_315_74" x1="869.11" y1="740.83" x2="938.54" y2="740.83" gradientUnits="userSpaceOnUse">
<stop stop-color="#362E94"/>
<stop offset="0.04" stop-color="#352D92"/>
<stop offset="1" stop-color="#20196F"/>
</linearGradient>
<linearGradient id="paint17_linear_315_74" x1="914.45" y1="730.07" x2="898.81" y2="757.15" gradientUnits="userSpaceOnUse">
<stop/>
<stop offset="1" stop-color="#20196F"/>
</linearGradient>
<linearGradient id="paint18_linear_315_74" x1="1105.07" y1="701.55" x2="1145.56" y2="701.55" gradientUnits="userSpaceOnUse">
<stop stop-color="#C4CAE9"/>
<stop offset="1" stop-color="white"/>
</linearGradient>
<linearGradient id="paint19_linear_315_74" x1="1189.21" y1="652" x2="1229.69" y2="652" gradientUnits="userSpaceOnUse">
<stop stop-color="#C4CAE9"/>
<stop offset="1" stop-color="white"/>
</linearGradient>
<linearGradient id="paint20_linear_315_74" x1="1190.21" y1="634.59" x2="1127.64" y2="639.4" gradientUnits="userSpaceOnUse">
<stop stop-color="#362E94"/>
<stop offset="0.64" stop-color="#4A45B7"/>
<stop offset="0.99" stop-color="#5652CC"/>
</linearGradient>
<linearGradient id="paint21_linear_315_74" x1="1054.68" y1="633.69" x2="1124.12" y2="633.69" gradientUnits="userSpaceOnUse">
<stop offset="0.01" stop-color="#5652CC"/>
<stop offset="0.36" stop-color="#4A45B7"/>
<stop offset="1" stop-color="#362E94"/>
</linearGradient>
<linearGradient id="paint22_linear_315_74" x1="1100.02" y1="622.93" x2="1084.39" y2="650.01" gradientUnits="userSpaceOnUse">
<stop/>
<stop offset="1" stop-color="#423EAF"/>
</linearGradient>
<linearGradient id="paint23_linear_315_74" x1="213.76" y1="495.87" x2="950.18" y2="495.87" gradientUnits="userSpaceOnUse">
<stop offset="0.01" stop-color="#DAE0F5"/>
<stop offset="1" stop-color="#F1F1F6"/>
</linearGradient>
<linearGradient id="paint24_linear_315_74" x1="442.05" y1="469.11" x2="742.54" y2="469.11" gradientUnits="userSpaceOnUse">
<stop stop-color="#DFE4F4"/>
<stop offset="1" stop-color="white"/>
</linearGradient>
<linearGradient id="paint25_linear_315_74" x1="692.34" y1="772.18" x2="1428.76" y2="772.18" gradientUnits="userSpaceOnUse">
<stop offset="0.01" stop-color="#DAE0F5"/>
<stop offset="1" stop-color="#F1F1F6"/>
</linearGradient>
<linearGradient id="paint26_linear_315_74" x1="1198.6" y1="805.52" x2="1283.3" y2="805.52" gradientUnits="userSpaceOnUse">
<stop stop-color="#C2C7E3"/>
<stop offset="0.27" stop-color="#D7DAED"/>
<stop offset="0.7" stop-color="#F4F5FA"/>
<stop offset="0.95" stop-color="white"/>
</linearGradient>
<linearGradient id="paint27_linear_315_74" x1="1150.92" y1="767.02" x2="1229.57" y2="721.61" gradientUnits="userSpaceOnUse">
<stop stop-color="#6B6ADE"/>
<stop offset="0.36" stop-color="#4C4BB0"/>
<stop offset="0.79" stop-color="#2B297E"/>
<stop offset="1" stop-color="#1E1C6B"/>
</linearGradient>
<linearGradient id="paint28_linear_315_74" x1="1156.82" y1="737.1" x2="1225.75" y2="697.3" gradientUnits="userSpaceOnUse">
<stop stop-color="#6B6ADE"/>
<stop offset="0.67" stop-color="#36348E"/>
<stop offset="1" stop-color="#1E1C6B"/>
</linearGradient>
<linearGradient id="paint29_linear_315_74" x1="1161.38" y1="685.74" x2="1235.82" y2="685.74" gradientUnits="userSpaceOnUse">
<stop stop-color="#7E7EEF"/>
<stop offset="0.33" stop-color="#6564CD"/>
<stop offset="1" stop-color="#34318B"/>
</linearGradient>
<linearGradient id="paint30_linear_315_74" x1="538" y1="466.95" x2="579.88" y2="466.95" gradientUnits="userSpaceOnUse">
<stop stop-color="#C2C7E3"/>
<stop offset="0.57" stop-color="#E7E9F4"/>
<stop offset="1" stop-color="white"/>
</linearGradient>
<linearGradient id="paint31_linear_315_74" x1="538.02" y1="454.86" x2="563.469" y2="454.86" gradientUnits="userSpaceOnUse">
<stop stop-color="#C2C7E3"/>
<stop offset="0.23" stop-color="#C7CCE5"/>
<stop offset="0.52" stop-color="#D7DAED"/>
<stop offset="0.85" stop-color="#F0F1F8"/>
<stop offset="1" stop-color="white"/>
</linearGradient>
<linearGradient id="paint32_linear_315_74" x1="534.51" y1="389.07" x2="541.54" y2="389.07" gradientUnits="userSpaceOnUse">
<stop stop-color="#5652CC"/>
<stop offset="1" stop-color="#362E94"/>
</linearGradient>
<linearGradient id="paint33_linear_315_74" x1="500.59" y1="337.38" x2="552.86" y2="246.85" gradientUnits="userSpaceOnUse">
<stop offset="0.43" stop-color="#BBC0E6"/>
<stop offset="0.57" stop-color="#DAE0F5"/>
</linearGradient>
<linearGradient id="paint34_linear_315_74" x1="1289.05" y1="960.38" x2="1486.54" y2="960.38" gradientUnits="userSpaceOnUse">
<stop stop-color="#CFD5F1"/>
<stop offset="0.28" stop-color="#E1E5F6"/>
<stop offset="0.72" stop-color="#F7F8FD"/>
<stop offset="1" stop-color="white"/>
</linearGradient>
<linearGradient id="paint35_linear_315_74" x1="699.62" y1="608.2" x2="738.53" y2="608.2" gradientUnits="userSpaceOnUse">
<stop stop-color="#C4CAE9"/>
<stop offset="1" stop-color="white"/>
</linearGradient>
<linearGradient id="paint36_linear_315_74" x1="609.35" y1="555.84" x2="648.26" y2="555.84" gradientUnits="userSpaceOnUse">
<stop stop-color="#C4CAE9"/>
<stop offset="1" stop-color="white"/>
</linearGradient>
<linearGradient id="paint37_linear_315_74" x1="604.73" y1="535.94" x2="666.18" y2="539.42" gradientUnits="userSpaceOnUse">
<stop stop-color="#20196F"/>
<stop offset="0.02" stop-color="#15124C"/>
<stop offset="0.03" stop-color="#131147"/>
<stop offset="1" stop-color="#20196F"/>
</linearGradient>
<linearGradient id="paint38_linear_315_74" x1="737.99" y1="532.78" x2="665.04" y2="532.78" gradientUnits="userSpaceOnUse">
<stop stop-color="#362E94"/>
<stop offset="0.04" stop-color="#352D92"/>
<stop offset="1" stop-color="#20196F"/>
</linearGradient>
<linearGradient id="paint39_linear_315_74" x1="694.2" y1="524.56" x2="709.23" y2="550.59" gradientUnits="userSpaceOnUse">
<stop/>
<stop offset="1" stop-color="#20196F"/>
</linearGradient>
<linearGradient id="paint40_linear_315_74" x1="690.31" y1="529.94" x2="702.77" y2="551.54" gradientUnits="userSpaceOnUse">
<stop/>
<stop offset="0.21" stop-color="#010103"/>
<stop offset="0.4" stop-color="#04030E"/>
<stop offset="0.57" stop-color="#090720"/>
<stop offset="0.75" stop-color="#110D3A"/>
<stop offset="0.91" stop-color="#1A145A"/>
<stop offset="1" stop-color="#20196F"/>
</linearGradient>
<linearGradient id="paint41_linear_315_74" x1="671.11" y1="536.401" x2="684.78" y2="560.19" gradientUnits="userSpaceOnUse">
<stop/>
<stop offset="0.44" stop-color="#030303"/>
<stop offset="0.82" stop-color="#0A0D0E"/>
<stop offset="1" stop-color="#101416"/>
</linearGradient>
<linearGradient id="paint42_linear_315_74" x1="725.5" y1="590" x2="721.64" y2="596.68" gradientUnits="userSpaceOnUse">
<stop stop-color="white"/>
<stop offset="0.18" stop-color="#EDEEF8"/>
<stop offset="0.5" stop-color="#D2D5EE"/>
<stop offset="0.78" stop-color="#C1C5E8"/>
<stop offset="1" stop-color="#BBC0E6"/>
</linearGradient>
<linearGradient id="paint43_linear_315_74" x1="597" y1="508.37" x2="607.36" y2="508.37" gradientUnits="userSpaceOnUse">
<stop stop-color="#C4CAE9"/>
<stop offset="1" stop-color="white"/>
</linearGradient>
<linearGradient id="paint44_linear_315_74" x1="644.52" y1="482.79" x2="655.19" y2="482.79" gradientUnits="userSpaceOnUse">
<stop stop-color="#C4CAE9"/>
<stop offset="1" stop-color="white"/>
</linearGradient>
<linearGradient id="paint45_linear_315_74" x1="773.73" y1="562.15" x2="769.87" y2="568.83" gradientUnits="userSpaceOnUse">
<stop stop-color="white"/>
<stop offset="0.18" stop-color="#EDEEF8"/>
<stop offset="0.5" stop-color="#D2D5EE"/>
<stop offset="0.78" stop-color="#C1C5E8"/>
<stop offset="1" stop-color="#BBC0E6"/>
</linearGradient>
<linearGradient id="paint46_linear_315_74" x1="676.83" y1="550.72" x2="771.29" y2="550.72" gradientUnits="userSpaceOnUse">
<stop stop-color="#C4CAE9"/>
<stop offset="1" stop-color="white"/>
</linearGradient>
<linearGradient id="paint47_linear_315_74" x1="439.91" y1="767.13" x2="482.18" y2="767.13" gradientUnits="userSpaceOnUse">
<stop stop-color="#C4CAE9"/>
<stop offset="1" stop-color="white"/>
</linearGradient>
<linearGradient id="paint48_linear_315_74" x1="335.07" y1="707.1" x2="377.34" y2="707.1" gradientUnits="userSpaceOnUse">
<stop stop-color="#C4CAE9"/>
<stop offset="1" stop-color="white"/>
</linearGradient>
<linearGradient id="paint49_linear_315_74" x1="402.35" y1="671.51" x2="463.53" y2="671.51" gradientUnits="userSpaceOnUse">
<stop offset="0.01" stop-color="#362E94"/>
<stop offset="1" stop-color="#362E94"/>
</linearGradient>
<linearGradient id="paint50_linear_315_74" x1="388.49" y1="700.79" x2="353.44" y2="656.9" gradientUnits="userSpaceOnUse">
<stop stop-color="#362E94"/>
<stop offset="0.64" stop-color="#4A45B7"/>
<stop offset="0.99" stop-color="#5652CC"/>
</linearGradient>
<linearGradient id="paint51_linear_315_74" x1="464.52" y1="673.36" x2="485.39" y2="673.36" gradientUnits="userSpaceOnUse">
<stop offset="0.01" stop-color="#D1D7F3"/>
<stop offset="1" stop-color="#F1F1F6"/>
</linearGradient>
<linearGradient id="paint52_linear_315_74" x1="418.85" y1="709.95" x2="489.22" y2="709.95" gradientUnits="userSpaceOnUse">
<stop offset="0.01" stop-color="#D1D7F3"/>
<stop offset="0.12" stop-color="#D6DBF3"/>
<stop offset="0.64" stop-color="#EAEBF5"/>
<stop offset="1" stop-color="#F1F1F6"/>
</linearGradient>
<linearGradient id="paint53_linear_315_74" x1="464.26" y1="686.67" x2="489.22" y2="686.67" gradientUnits="userSpaceOnUse">
<stop offset="0.01" stop-color="#DFE4F4"/>
<stop offset="1" stop-color="#F1F1F6"/>
</linearGradient>
<linearGradient id="paint54_linear_315_74" x1="397.98" y1="706.72" x2="404.72" y2="706.72" gradientUnits="userSpaceOnUse">
<stop offset="0.01" stop-color="#D1D7F3"/>
<stop offset="1" stop-color="#F1F1F6"/>
</linearGradient>
<linearGradient id="paint55_linear_315_74" x1="820.66" y1="532.32" x2="859.7" y2="532.32" gradientUnits="userSpaceOnUse">
<stop stop-color="#C4CAE9"/>
<stop offset="1" stop-color="white"/>
</linearGradient>
<linearGradient id="paint56_linear_315_74" x1="740.14" y1="485.69" x2="779.17" y2="485.69" gradientUnits="userSpaceOnUse">
<stop stop-color="#C4CAE9"/>
<stop offset="1" stop-color="white"/>
</linearGradient>
<linearGradient id="paint57_linear_315_74" x1="748.88" y1="468.53" x2="809.22" y2="473.17" gradientUnits="userSpaceOnUse">
<stop stop-color="#20196F"/>
<stop offset="0.02" stop-color="#15124C"/>
<stop offset="0.03" stop-color="#131147"/>
<stop offset="1" stop-color="#20196F"/>
</linearGradient>
<linearGradient id="paint58_linear_315_74" x1="879.57" y1="467.66" x2="812.62" y2="467.66" gradientUnits="userSpaceOnUse">
<stop stop-color="#362E94"/>
<stop offset="0.04" stop-color="#352D92"/>
<stop offset="1" stop-color="#20196F"/>
</linearGradient>
<linearGradient id="paint59_linear_315_74" x1="835.85" y1="457.29" x2="850.92" y2="483.4" gradientUnits="userSpaceOnUse">
<stop/>
<stop offset="1" stop-color="#20196F"/>
</linearGradient>
<linearGradient id="paint60_linear_315_74" x1="912.04" y1="411.08" x2="965.73" y2="411.08" gradientUnits="userSpaceOnUse">
<stop stop-color="#C4CAE9"/>
<stop offset="0.32" stop-color="#CED3EC"/>
<stop offset="0.87" stop-color="#E9EAF4"/>
<stop offset="1" stop-color="#F1F1F6"/>
</linearGradient>
<linearGradient id="paint61_linear_315_74" x1="909.5" y1="418.22" x2="963.2" y2="418.22" gradientUnits="userSpaceOnUse">
<stop offset="0.47" stop-color="#FCBA06"/>
<stop offset="0.53" stop-color="#DC8B00"/>
</linearGradient>
<linearGradient id="paint62_linear_315_74" x1="936.35" y1="410.17" x2="963.2" y2="410.17" gradientUnits="userSpaceOnUse">
<stop stop-color="#C4CAE9"/>
<stop offset="1" stop-color="white"/>
</linearGradient>
<linearGradient id="paint63_linear_315_74" x1="920.44" y1="400.07" x2="952.27" y2="400.07" gradientUnits="userSpaceOnUse">
<stop offset="0.46" stop-color="#FCBA06"/>
<stop offset="0.54" stop-color="#DC8B00"/>
</linearGradient>
<linearGradient id="paint64_linear_315_74" x1="924.58" y1="398.45" x2="948.12" y2="398.45" gradientUnits="userSpaceOnUse">
<stop offset="0.46" stop-color="#F6F6FB"/>
<stop offset="0.54" stop-color="#BBC0E6"/>
</linearGradient>
</defs>
</svg>
