<?xml version="1.0" encoding="UTF-8"?>
<svg id="Layer_1" data-name="Layer 1" xmlns="http://www.w3.org/2000/svg" viewBox="0 0 369.32 273.33">
  <defs>
    <style>
      .cls-1 {
        fill: #e2c08e;
      }

      .cls-2 {
        fill: #234072;
      }
    </style>
  </defs>
  <path class="cls-2" d="M218.29,245.41c0-7.06,.01-14.11,0-21.17,0-2.38,.73-4.32,3.08-5.22,3.05-1.17,5.93,.78,6.35,4.14,.09,.72-.35,1.78,.55,2.07,.83,.27,1.23-.76,1.77-1.26,7.44-6.86,21.1-7.84,29.45-2.07,1.8,1.25,3.36,2.76,4.53,4.61,.64,1,1.08,1.28,2.02,.19,7.52-8.6,17.17-10.03,27.57-7.38,8.13,2.08,12.68,8.04,13.67,16.19,1.31,10.72,.43,21.53,.48,32.3,.02,2.89-2.29,4.81-4.99,4.74-2.85-.07-4.73-2.05-4.74-5.21-.04-7.99-.02-15.97-.01-23.96,0-2.73-.27-5.42-1.15-8.02-1.39-4.13-4.18-6.78-8.44-7.84-10.61-2.63-19.29,3.4-20.19,14.28-.66,7.96-.15,15.96-.24,23.95-.05,4.56-1.57,6.74-4.85,6.8-3.35,.06-5.05-2.25-5.06-6.86,0-7.29,0-14.58,0-21.87,0-1.01,0-2.02-.06-3.02-.54-8.49-4.84-13.32-12.21-13.72-9.25-.51-15.65,4.16-17.15,12.46-.61,3.39-.54,6.79-.55,10.2,0,5.82,.02,11.63-.01,17.45-.02,3.27-1.93,5.34-4.83,5.36-2.87,.02-4.95-2.07-4.98-5.28-.07-7.29-.02-14.58-.02-21.87Z"/>
  <path class="cls-2" d="M184.56,264.97c-3.23,3.46-6.79,5.9-11.15,7.17-18.45,5.37-35.74-8.19-34.85-27.36,.61-13.03,7.57-22.57,19.18-25.52,9.26-2.35,18.02-1.41,25.31,5.64,.31,.3,.58,.87,1.11,.55,.55-.32,.35-.97,.36-1.48,.01-6.82,.02-13.64,0-20.47,0-1.17,.04-2.34,.51-3.43,.88-2.07,3.01-3.18,5.33-2.81,2.17,.34,3.75,2,3.98,4.23,.07,.69,.06,1.39,.06,2.09,0,20.93,0,41.86,0,62.79,0,.54,.01,1.09-.03,1.63-.18,2.7-2.05,4.53-4.62,4.54-2.55,.01-4.48-1.81-4.74-4.48-.09-.91,.19-1.86-.45-3.11Zm-36-19.27c.01,12.71,10.52,21.3,22.43,18.42,15.98-3.87,16.68-23.76,8.9-31.85-5.02-5.22-13.31-6.97-20.4-4.14-6.89,2.75-10.93,9.26-10.92,17.57Z"/>
  <path class="cls-2" d="M347.16,248.94c-6.51,0-13.03,.05-19.54-.03-1.81-.02-2.28,.41-1.8,2.26,1.86,7.11,7.99,12.4,15.71,13.22,5.62,.59,10.95-.16,15.75-3.49,2.29-1.59,4.74-1.16,6.17,.81,1.48,2.05,1.01,4.52-1.4,6.25-7.11,5.1-15.1,6.14-23.5,4.75-24.14-3.99-27.9-29.93-17.86-43.76,6.67-9.19,18.71-13.01,30.35-9.56,10.44,3.1,17.65,12.68,18.2,24.19q.25,5.38-5.1,5.38c-5.66,0-11.32,0-16.98,0Zm-4.78-7.16c5.12,0,10.24-.05,15.36,.03,1.65,.03,2.15-.34,1.76-2.1-1.81-7.99-8.58-13.3-17.11-13.24-8.33,.06-15.08,5.54-16.7,13.45-.3,1.47,.07,1.91,1.58,1.88,5.04-.08,10.08-.03,15.12-.03Z"/>
  <path class="cls-2" d="M49.75,248.94c-6.59,0-13.18,.05-19.77-.03-1.92-.03-2.23,.68-1.81,2.36,1.72,7.03,8.3,12.46,16.03,13.15,5.56,.5,10.79-.33,15.51-3.58,2.27-1.56,4.81-1.05,6.13,.95,1.35,2.03,.86,4.42-1.39,6.09-6.18,4.59-13.25,5.75-20.72,5.23-13.16-.92-22.75-9.16-25.36-21.71-2.99-14.42,5.08-28.38,18.6-32.18,18.7-5.25,35.63,8.23,34.67,27.54-.08,1.7-.64,2.25-2.36,2.22-6.51-.09-13.03-.04-19.54-.04Zm-4.81-7.16c5.03,0,10.07-.07,15.1,.04,1.79,.04,2.07-.6,1.76-2.17-1.56-7.77-8.66-13.25-17.14-13.17-8.29,.07-15.23,5.73-16.64,13.46-.28,1.51,.12,1.89,1.59,1.87,5.11-.07,10.22-.03,15.34-.03Z"/>
  <path class="cls-2" d="M89.13,226.29c5.75-6.45,12.71-8.31,20.49-8.04,12.67,.44,20.69,8.31,21,21.02,.23,9.3,.11,18.61,.09,27.92,0,3.28-1.95,5.35-4.85,5.37-2.96,.03-4.96-2.11-4.97-5.52-.04-7.91-.02-15.82-.01-23.73,0-2.26-.1-4.49-.71-6.68-1.37-4.91-4.4-8.15-9.48-9.13-9.96-1.93-20.85,1.83-21.27,16.41-.23,7.9-.06,15.82-.08,23.73,0,2.38-1.2,4-3.43,4.7-2.14,.67-3.99,0-5.37-1.77-.84-1.09-1-2.41-1-3.75,0-2.95,0-5.89,0-8.84,0-11.25-.01-22.49,0-33.74,0-3.27,1.53-5.19,4.19-5.45,2.67-.26,4.7,1.28,5.11,3.94,.15,.98,.17,1.99,.29,3.56Z"/>
  <path class="cls-1" d="M115.79,45.32c-.04-15.28,11.17-27.32,26.25-28.93,8.99-.96,16.33,2.05,22.81,7.98,6.17,5.65,12.11,11.54,17.72,17.75,1.35,1.49,2.32,1.59,3.74,.05,3.72-4.01,8.41-7.07,11.61-11.64,.47-.67,1.29-1.23,2.23-.83,.88,.37,1.1,1.17,1.19,2.09,.49,4.75-.61,8.77-4.38,12.09-4.65,4.1-9.04,8.5-11.42,14.45-.56,1.4-1.18,.43-1.56-.15-1.1-1.68-1.9-3.6-3.2-5.1-7.8-9.04-15.81-18.03-25.35-25.15-8.39-6.26-21.79-4.11-27.5,7.21-2.14,4.24-4.01,8.48-3.08,13.5,.49,2.68-1.56,4.3-4.94,4.54-2.55,.18-3.34-.6-3.74-3.55-.21-1.54-.49-3.06-.39-4.33Zm79.91-5.34c-.12-.25-.16-.53-.31-.61-.62-.33-1.01,.13-1.39,.5-2.69,2.67-5.42,5.31-8.02,8.06-1.2,1.28-2.02,1.2-3.2-.03-3-3.13-6.1-6.16-9.18-9.21-.34-.34-.74-1.03-1.32-.48-.53,.5-.05,.99,.34,1.38,3.66,3.67,7.33,7.33,10.99,11,.71,.71,1.18,.62,1.89-.12,2.93-3.09,5.94-6.09,8.92-9.12,.43-.44,.83-.9,1.28-1.38Z"/>
  <path class="cls-1" d="M167.96,142.04c0-3.58-.05-6.83,.02-10.07,.04-1.77,1.28-3.04,2.46-4.08,5.72-5.07,10.81-10.61,13.99-17.8,1.33,.87,1.39,2.3,1.98,3.4,1.74,3.23,3.95,6.14,6.51,8.71,5.9,5.93,11.56,12.11,17.89,17.6,6.01,5.22,12.88,6.95,20.47,4.1,7.32-2.74,11.71-8.05,13.04-15.84,.41-2.4,.51-4.75,0-7.14-.33-1.59-.04-2.71,1.86-3.32,5.62-1.81,6.22-1.66,6.89,4.14,1.16,10.13-2.22,18.75-10.03,25.18-10.47,8.62-22.73,9.24-34.3,2.27-1.64-.99-3.15-2.26-4.51-3.61-5.86-5.76-11.64-11.59-17.47-17.39-2.02-2-2.32-2-4.33-.01-4.07,4.04-8.11,8.11-12.18,12.15-.58,.58-1.07,1.3-2.31,1.71Zm16.12-22.73c-.49,.42-.91,.75-1.28,1.12-3.06,3.08-6.12,6.16-9.16,9.27-.43,.44-1.4,.9-.71,1.67,.85,.95,1.35-.15,1.83-.62,2.53-2.51,5.15-4.96,7.49-7.64,1.5-1.72,2.4-1.4,3.81,.06,2.79,2.9,5.77,5.62,8.71,8.38,.41,.39,.71,1.56,1.57,.7,.83-.82-.07-1.4-.59-1.91-3.51-3.4-7.03-6.77-10.56-10.15-.32-.31-.7-.56-1.11-.89Z"/>
  <path class="cls-1" d="M234.23,101.53c-2.98,.54-5.22-.8-7.29-2.98-3.94-4.15-7.85-8.36-12.91-11.26-1.21-.7-3.38-.88-3.37-2.31,0-1.2,2.16-1.46,3.31-2.23,5.96-4,11.08-8.92,15.87-14.22,1.92-2.13,3.94-4.15,6.1-6.05,7.35-6.45,11.13-15.36,7.37-24.71-2.95-7.32-8.33-11.66-16.36-12.62-2.27-.27-4.45-.06-6.68,.07-2.37,.14-3.55-.93-3.92-3.29-.1-.61-.15-1.23-.29-1.83-.42-1.88,.25-2.88,2.2-3.28,12.72-2.6,25.74,3.32,31.91,15.25,6.18,11.93,2.98,25.8-5.93,34.32-5.66,5.41-11.1,11.05-16.64,16.58-1.94,1.93-1.96,2.48,.09,4.22,4.32,3.67,8.08,7.92,12.14,11.85,.43,.42,1.11,.81,.92,1.51-.21,.8-1.02,.51-1.59,.57-1.61,.18-3.19,.67-4.94,.42Zm-2.22-27.3c.07-.55-.07-.81-.4-.92-.53-.17-.88,.19-1.21,.51-3.69,3.53-7.37,7.08-11.07,10.59-.76,.72-.6,1.24,.06,1.92,3.12,3.22,6.2,6.49,9.32,9.71,.44,.45,.96,1.34,1.69,.6,.71-.72-.18-1.24-.61-1.7-2.59-2.76-5.15-5.55-7.84-8.21-1.12-1.1-1.04-1.78,.06-2.79,3.02-2.78,5.96-5.64,8.92-8.48,.44-.42,.8-.91,1.09-1.24Z"/>
  <path class="cls-1" d="M128.02,69.25c5.22-2.22,12.53-.54,15.78,3.59,3.6,4.57,7.89,8.26,13.15,10.82,.82,.4,2.65,.93,.65,2.06-10.41,5.87-17.33,15.57-25.95,23.39-5.02,4.55-7.46,10.08-7.16,16.89,.34,7.73,5.33,14.68,12.61,17.33,3.73,1.36,7.44,2.4,11.52,1.62,2.78-.53,3.65,.25,4.18,2.7,.64,2.94-.05,4.7-2.51,5.43-3.86,1.14-7.84,.97-11.7,.04-14.13-3.38-23.15-15.08-22.78-29.63,.2-7.9,3.65-14.46,9.14-19.98,5.46-5.49,10.77-11.14,16.55-16.31,1.75-1.57,1.74-2.58,.07-4.25-4.28-4.27-8.57-8.53-12.85-12.8-.26-.26-.46-.58-.71-.9Zm10.57,4.06c-.28,.22-.6,.35-.73,.58-.34,.65,.25,.98,.6,1.35,2.35,2.37,4.71,4.71,7.07,7.07,2.5,2.5,2.52,2.52-.01,5.11-2.65,2.72-5.36,5.38-8.03,8.08-.41,.42-1.14,.9-.59,1.54,.71,.82,1.25-.04,1.69-.48,3.52-3.49,6.99-7.04,10.54-10.5,.97-.94,.9-1.53-.03-2.43-3.17-3.07-6.27-6.22-9.41-9.33-.32-.32-.68-.6-1.11-.97Z"/>
  <path class="cls-1" d="M229.73,114.08c-5.43,0-9.7,.05-13.96-.03-1.71-.03-2.33,.57-2.31,2.29,.08,5.5,.04,11.01,.03,16.51,0,.96,.31,2.12-.97,2.59-1.26,.46-1.95-.55-2.45-1.32-1.57-2.44-4.59-3.75-5.19-6.94-.3-1.59,.2-3.08,.19-4.61-.05-5.87,.03-11.76-2.06-17.4-.55-1.48,.17-1.91,1.47-1.57,12.52,3.31,25.28,1.75,37.92,1.62,14.81-.14,23.87-18.15,15.93-30.72-1.56-2.46-3.5-4.49-5.83-6.23-2.59-1.94-2.48-3.61,.33-7.04,1.47-1.8,2.44-1.68,4.89,.17,5.79,4.35,9.53,9.95,11.37,17,3.97,15.23-6.53,31.9-22,34.88-6.17,1.19-12.35,.53-17.36,.78Zm-12.53-6.38v.08c-2.48,0-4.96,.01-7.44,0-1.09,0-1.81,.31-1.78,1.57,.13,4.64,.24,9.29,.36,13.93,.01,.58,.1,1.12,.86,1.1,.81-.03,.68-.55,.66-1.14-.09-3.8-.04-7.59-.2-11.39-.07-1.79,.42-2.47,2.32-2.41,3.87,.12,7.75,.05,11.63-.03,.9-.02,2.47,.57,2.52-.78,.05-1.47-1.53-.85-2.42-.88-2.17-.08-4.34-.03-6.51-.03Z"/>
  <path class="cls-1" d="M139.48,56.06c4.42,0,8.84-.08,13.26,.03,2.19,.05,3.07-.7,3.03-2.96-.11-5.73-.01-11.47-.07-17.21-.02-1.59,.39-2.03,1.79-1.05,4.37,3.05,7.24,6.91,7.12,12.53-.14,6.19-.27,12.39,1.58,18.42,.25,.81,.23,1.53-.92,1.11-11.36-4.12-23.17-2.03-34.79-2.46-2.21-.08-4.49,.3-6.65,.81-8.98,2.11-14.22,8-15.74,16.9-1.39,8.13,2.29,14.44,8.5,19.4,2.56,2.04,2.84,2.96,1.18,5.6-1.59,2.52-3.19,2.96-5.87,1.54-3.96-2.09-6.35-5.7-8.34-9.44-6.08-11.45-5.8-22.66,2.51-32.99,5.1-6.35,12.09-9.57,20.15-10.15,4.4-.32,8.83-.06,13.25-.06v-.02Zm11.96,4.18c2.4,0,4.8-.07,7.19,.03,1.45,.06,1.86-.51,1.84-1.89-.07-4.25,0-8.51-.04-12.76,0-.59,.36-1.63-.77-1.55-.84,.06-.6,.96-.6,1.53-.02,3.48-.14,6.97,.03,10.44,.12,2.31-.76,2.92-2.94,2.85-4.1-.14-8.2-.05-12.3-.03-.56,0-1.41-.19-1.36,.77,.04,.75,.79,.61,1.29,.61,2.55,.02,5.11,0,7.66,.01Z"/>
  <path class="cls-1" d="M132.24,113.54c3.76-2.65,5.65-7.13,10.53-7.96,1.79-.3,3.55-.23,5.32-.16,5.69,.21,11.31-.07,16.7-2.09,1.52-.57,1.57,0,1.23,1.24-3.36,12.26-1.89,24.81-1.74,37.21,.14,12.02,9.45,20.2,21.46,19.88,6.3-.17,11.19-3.26,15.01-8.11,.98-1.24,1.89-2.8,3.61-2.47,2.18,.42,3.84,1.95,5.13,3.74,.44,.61,.17,1.32-.27,1.94-5.47,7.72-12.61,12.51-22.3,13.3-15.35,1.25-28.74-9.22-30.89-24.3-.83-5.82-.99-11.85-.48-17.83,.31-3.69,.21-7.41-.06-11.13-.17-2.36-1.21-2.78-3.24-2.75-5.73,.09-11.47,.04-17.21,.01-.75,0-1.54,.2-2.82-.53Zm27.66,4.27h0c0-2.48-.05-4.96,.02-7.43,.04-1.31-.43-1.76-1.74-1.74-4.34,.06-8.67,.01-13.01,.05-.69,0-1.78-.38-1.81,.82-.03,1.22,1.07,.87,1.75,.87,3.02,.03,6.04-.02,9.06,.01,4.64,.05,3.95-.63,4.01,4.11,.05,3.56,0,7.12,.02,10.69,0,.67-.13,1.54,.95,1.48,.92-.05,.75-.84,.75-1.42,.02-2.48,0-4.96,0-7.43Z"/>
  <path class="cls-1" d="M236.26,56.44c-3.92,4.12-7.05,9.09-13.72,8.33-4.96-.56-9.86,.05-14.74,.85-2.71,.44-3.14,.11-3.06-2.7,.29-9.52,.56-19.04,.36-28.57-.06-2.94-.18-5.88-.44-8.8-.78-8.58-9.5-16.6-18.17-17.11-7.65-.45-13.71,2.17-18.34,8.32-2.31,3.07-6.79,2.45-8.41-1.09-.89-1.93,.23-3.44,1.47-4.79,2.85-3.11,6.14-5.68,9.93-7.54,6.23-3.05,12.89-4.13,19.65-2.77,9.99,2.01,16.77,8.18,20.77,17.48,1.39,3.24,1.96,6.64,1.95,10.18-.04,8.2-.02,16.4-.02,24.6,0,2.88,.35,3.23,3.19,3.23,5.66,0,11.32-.02,16.97-.01,.75,0,1.54-.19,2.61,.39Zm-27.45-5.36c0,2.4,.07,4.8-.03,7.19-.06,1.5,.42,2.04,1.96,2,4.17-.09,8.35-.01,12.53-.05,.62,0,1.69,.35,1.7-.62,0-1.17-1.15-.74-1.82-.75-3.4-.05-6.81-.14-10.21,.02-2.15,.1-2.86-.61-2.78-2.77,.15-4.02,.06-8.04,.03-12.06,0-.63,.32-1.7-.61-1.73-1.18-.03-.73,1.13-.75,1.8-.06,2.32-.02,4.64-.02,6.96Z"/>
  <path class="cls-2" d="M0,234.93c0-10.62,0-21.23,0-31.85,0-3.68,1.76-5.81,4.8-5.87,3.14-.06,5.07,2.12,5.07,5.88,.01,21.23,.02,42.47,0,63.7,0,3.59-1.93,5.77-4.97,5.77-2.96,0-4.89-2.14-4.9-5.55-.02-10.69,0-21.39,0-32.08Z"/>
  <path class="cls-1" d="M162.61,78.38c1.17-2.15,3.26-2.69,5.06-3.45,7.34-3.1,14.91-5.53,22.86-6.6,2.18-.29,4.34-.12,6.43,.51,3.66,1.11,4.91,4.08,3.5,8.48-2.22,6.95-6.13,12.96-10.54,18.68-2.43,3.15-5.26,5.86-8.53,8.12-.63,.44-1.33,1.06-2.06,.38-.62-.58-.16-1.36,.17-1.93,1.85-3.21,3.78-6.37,5.65-9.57,1.91-3.28,3.65-6.64,4.41-10.42,.78-3.88-1.11-6.48-5-7.12-5.49-.91-10.73,.42-16,1.58-1.99,.44-3.97,.89-5.96,1.34Zm28.66,10.33c.22,.08,.45,.15,.67,.23,2.34-4.04,4.33-8.23,4.26-13.1-.03-1.99-1.24-3.54-3.02-4.02-4.06-1.1-8.08-.64-11.94,1.02,1.77,.07,3.52-.13,5.28-.13,5.66,0,7.93,2.73,6.93,8.3-.07,.38-.2,.75-.31,1.12-.62,2.2-1.24,4.39-1.86,6.59Z"/>
</svg>