<svg width="568" height="172" viewBox="0 0 568 172" fill="none" xmlns="http://www.w3.org/2000/svg">
<path d="M17.4137 46.3201C17.3737 31.0401 28.5837 19.0001 43.6637 17.3901C52.6537 16.4301 59.9937 19.4401 66.4737 25.3701C72.6437 31.0201 78.5837 36.9101 84.1937 43.1201C85.5437 44.6101 86.5137 44.7101 87.9337 43.1701C91.6537 39.1601 96.3437 36.1001 99.5437 31.5301C100.014 30.8601 100.834 30.3001 101.774 30.7001C102.654 31.0701 102.874 31.8701 102.964 32.7901C103.454 37.5401 102.354 41.5601 98.5837 44.8801C93.9337 48.9801 89.5437 53.3801 87.1637 59.3301C86.6037 60.7301 85.9837 59.7601 85.6037 59.1801C84.5037 57.5001 83.7037 55.5801 82.4037 54.0801C74.6037 45.0401 66.5937 36.0501 57.0537 28.9301C48.6637 22.6701 35.2637 24.8201 29.5537 36.1401C27.4137 40.3801 25.5437 44.6201 26.4737 49.6401C26.9637 52.3201 24.9137 53.9401 21.5337 54.1801C18.9837 54.3601 18.1937 53.5801 17.7937 50.6301C17.5837 49.0901 17.3037 47.5701 17.4037 46.3001L17.4137 46.3201ZM97.3237 40.9801C97.2037 40.7301 97.1637 40.4501 97.0137 40.3701C96.3937 40.0401 96.0037 40.5001 95.6237 40.8701C92.9337 43.5401 90.2037 46.1801 87.6037 48.9301C86.4037 50.2101 85.5837 50.1301 84.4037 48.9001C81.4037 45.7701 78.3037 42.7401 75.2237 39.6901C74.8837 39.3501 74.4837 38.6601 73.9037 39.2101C73.3737 39.7101 73.8537 40.2001 74.2437 40.5901C77.9037 44.2601 81.5737 47.9201 85.2337 51.5901C85.9437 52.3001 86.4137 52.2101 87.1237 51.4701C90.0537 48.3801 93.0637 45.3801 96.0437 42.3501C96.4737 41.9101 96.8737 41.4501 97.3237 40.9701V40.9801Z" fill="#E2C08E"/>
<path d="M69.5835 143.04C69.5835 139.46 69.5335 136.21 69.6035 132.97C69.6435 131.2 70.8835 129.93 72.0635 128.89C77.7835 123.82 82.8735 118.28 86.0535 111.09C87.3835 111.96 87.4435 113.39 88.0335 114.49C89.7735 117.72 91.9835 120.63 94.5435 123.2C100.443 129.13 106.103 135.31 112.433 140.8C118.443 146.02 125.313 147.75 132.903 144.9C140.223 142.16 144.613 136.85 145.943 129.06C146.353 126.66 146.453 124.31 145.943 121.92C145.613 120.33 145.903 119.21 147.803 118.6C153.423 116.79 154.023 116.94 154.693 122.74C155.853 132.87 152.473 141.49 144.663 147.92C134.193 156.54 121.933 157.16 110.363 150.19C108.723 149.2 107.213 147.93 105.853 146.58C99.9935 140.82 94.2135 134.99 88.3835 129.19C86.3635 127.19 86.0635 127.19 84.0535 129.18C79.9835 133.22 75.9435 137.29 71.8735 141.33C71.2935 141.91 70.8035 142.63 69.5635 143.04H69.5835ZM85.7035 120.31C85.2135 120.73 84.7935 121.06 84.4235 121.43C81.3635 124.51 78.3035 127.59 75.2635 130.7C74.8335 131.14 73.8635 131.6 74.5535 132.37C75.4035 133.32 75.9035 132.22 76.3835 131.75C78.9135 129.24 81.5335 126.79 83.8735 124.11C85.3735 122.39 86.2735 122.71 87.6835 124.17C90.4735 127.07 93.4535 129.79 96.3935 132.55C96.8035 132.94 97.1035 134.11 97.9635 133.25C98.7935 132.43 97.8935 131.85 97.3735 131.34C93.8635 127.94 90.3435 124.57 86.8135 121.19C86.4935 120.88 86.1135 120.63 85.7035 120.3V120.31Z" fill="#E2C08E"/>
<path d="M135.854 102.53C132.874 103.07 130.634 101.73 128.564 99.5501C124.624 95.4001 120.714 91.1901 115.654 88.2901C114.444 87.5901 112.274 87.4101 112.284 85.9801C112.284 84.7801 114.444 84.5201 115.594 83.7501C121.554 79.7501 126.674 74.8301 131.464 69.5301C133.384 67.4001 135.404 65.3801 137.564 63.4801C144.914 57.0301 148.694 48.1201 144.934 38.7701C141.984 31.4501 136.604 27.1101 128.574 26.1501C126.304 25.8801 124.124 26.0901 121.894 26.2201C119.524 26.3601 118.344 25.2901 117.974 22.9301C117.874 22.3201 117.824 21.7001 117.684 21.1001C117.264 19.2201 117.934 18.2201 119.884 17.8201C132.604 15.2201 145.624 21.1401 151.794 33.0701C157.974 45.0001 154.774 58.8701 145.864 67.3901C140.204 72.8001 134.764 78.4401 129.224 83.9701C127.284 85.9001 127.264 86.4501 129.314 88.1901C133.634 91.8601 137.394 96.1101 141.454 100.04C141.884 100.46 142.564 100.85 142.374 101.55C142.164 102.35 141.354 102.06 140.784 102.12C139.174 102.3 137.594 102.79 135.844 102.54L135.854 102.53ZM133.634 75.2301C133.704 74.6801 133.564 74.4201 133.234 74.3101C132.704 74.1401 132.354 74.5001 132.024 74.8201C128.334 78.3501 124.654 81.9001 120.954 85.4101C120.194 86.1301 120.354 86.6501 121.014 87.3301C124.134 90.5501 127.214 93.8201 130.334 97.0401C130.774 97.4901 131.294 98.3801 132.024 97.6401C132.734 96.9201 131.844 96.4001 131.414 95.9401C128.824 93.1801 126.264 90.3901 123.574 87.7301C122.454 86.6301 122.534 85.9501 123.634 84.9401C126.654 82.1601 129.594 79.3001 132.554 76.4601C132.994 76.0401 133.354 75.5501 133.644 75.2201L133.634 75.2301Z" fill="#E2C08E"/>
<path d="M29.6433 70.25C34.8633 68.03 42.1733 69.71 45.4233 73.84C49.0233 78.41 53.3133 82.1 58.5733 84.66C59.3933 85.06 61.2233 85.59 59.2233 86.72C48.8133 92.59 41.8933 102.29 33.2733 110.11C28.2533 114.66 25.8133 120.19 26.1133 127C26.4533 134.73 31.4433 141.68 38.7233 144.33C42.4533 145.69 46.1633 146.73 50.2433 145.95C53.0233 145.42 53.8933 146.2 54.4233 148.65C55.0633 151.59 54.3733 153.35 51.9133 154.08C48.0533 155.22 44.0733 155.05 40.2133 154.12C26.0833 150.74 17.0633 139.04 17.4333 124.49C17.6333 116.59 21.0833 110.03 26.5733 104.51C32.0333 99.02 37.3433 93.37 43.1233 88.2C44.8733 86.63 44.8633 85.62 43.1933 83.95C38.9133 79.68 34.6233 75.42 30.3433 71.15C30.0833 70.89 29.8833 70.57 29.6333 70.25H29.6433ZM40.2133 74.31C39.9333 74.53 39.6133 74.66 39.4833 74.89C39.1433 75.54 39.7333 75.87 40.0833 76.24C42.4333 78.61 44.7933 80.95 47.1533 83.31C49.6533 85.81 49.6733 85.83 47.1433 88.42C44.4933 91.14 41.7833 93.8 39.1133 96.5C38.7033 96.92 37.9733 97.4 38.5233 98.04C39.2333 98.86 39.7733 98 40.2133 97.56C43.7333 94.07 47.2033 90.52 50.7533 87.06C51.7233 86.12 51.6533 85.53 50.7233 84.63C47.5533 81.56 44.4533 78.41 41.3133 75.3C40.9933 74.98 40.6333 74.7 40.2033 74.33L40.2133 74.31Z" fill="#E2C08E"/>
<path d="M131.354 115.08C125.924 115.08 121.654 115.13 117.394 115.05C115.684 115.02 115.064 115.62 115.084 117.34C115.164 122.84 115.124 128.35 115.114 133.85C115.114 134.81 115.424 135.97 114.144 136.44C112.884 136.9 112.194 135.89 111.694 135.12C110.124 132.68 107.104 131.37 106.504 128.18C106.204 126.59 106.704 125.1 106.694 123.57C106.644 117.7 106.724 111.81 104.634 106.17C104.084 104.69 104.804 104.26 106.104 104.6C118.624 107.91 131.384 106.35 144.024 106.22C158.834 106.08 167.894 88.07 159.954 75.5C158.394 73.04 156.454 71.01 154.124 69.27C151.534 67.33 151.644 65.66 154.454 62.23C155.924 60.43 156.894 60.55 159.344 62.4C165.134 66.75 168.874 72.35 170.714 79.4C174.684 94.63 164.184 111.3 148.714 114.28C142.544 115.47 136.364 114.81 131.354 115.06V115.08ZM118.824 108.7V108.78C116.344 108.78 113.864 108.79 111.384 108.78C110.294 108.78 109.574 109.09 109.604 110.35C109.734 114.99 109.844 119.64 109.964 124.28C109.974 124.86 110.064 125.4 110.824 125.38C111.634 125.35 111.504 124.83 111.484 124.24C111.394 120.44 111.444 116.65 111.284 112.85C111.214 111.06 111.704 110.38 113.604 110.44C117.474 110.56 121.354 110.49 125.234 110.41C126.134 110.39 127.704 110.98 127.754 109.63C127.804 108.16 126.224 108.78 125.334 108.75C123.164 108.67 120.994 108.72 118.824 108.72V108.7Z" fill="#E2C08E"/>
<path d="M41.1034 57.06C45.5234 57.06 49.9434 56.98 54.3634 57.09C56.5534 57.14 57.4334 56.39 57.3934 54.13C57.2834 48.4 57.3834 42.66 57.3234 36.92C57.3034 35.33 57.7134 34.89 59.1134 35.87C63.4834 38.92 66.3534 42.78 66.2334 48.4C66.0934 54.59 65.9634 60.79 67.8134 66.82C68.0634 67.63 68.0434 68.35 66.8934 67.93C55.5334 63.81 43.7234 65.9 32.1034 65.47C29.8934 65.39 27.6134 65.77 25.4534 66.28C16.4734 68.39 11.2334 74.28 9.71336 83.18C8.32336 91.31 12.0034 97.62 18.2134 102.58C20.7734 104.62 21.0534 105.54 19.3934 108.18C17.8034 110.7 16.2034 111.14 13.5234 109.72C9.56337 107.63 7.17336 104.02 5.18336 100.28C-0.896635 88.83 -0.616633 77.62 7.69337 67.29C12.7934 60.94 19.7834 57.72 27.8434 57.14C32.2434 56.82 36.6734 57.08 41.0934 57.08V57.06H41.1034ZM53.0634 61.24C55.4634 61.24 57.8634 61.17 60.2534 61.27C61.7034 61.33 62.1134 60.76 62.0934 59.38C62.0234 55.13 62.0934 50.87 62.0534 46.62C62.0534 46.03 62.4134 44.99 61.2834 45.07C60.4434 45.13 60.6834 46.03 60.6834 46.6C60.6634 50.08 60.5434 53.57 60.7134 57.04C60.8334 59.35 59.9534 59.96 57.7734 59.89C53.6734 59.75 49.5734 59.84 45.4734 59.86C44.9134 59.86 44.0634 59.67 44.1134 60.63C44.1534 61.38 44.9034 61.24 45.4034 61.24C47.9534 61.26 50.5134 61.24 53.0634 61.25V61.24Z" fill="#E2C08E"/>
<path d="M33.8638 114.54C37.6238 111.89 39.5138 107.41 44.3938 106.58C46.1838 106.28 47.9437 106.35 49.7137 106.42C55.4037 106.63 61.0237 106.35 66.4137 104.33C67.9337 103.76 67.9838 104.33 67.6438 105.57C64.2838 117.83 65.7537 130.38 65.9037 142.78C66.0437 154.8 75.3538 162.98 87.3638 162.66C93.6638 162.49 98.5537 159.4 102.374 154.55C103.354 153.31 104.264 151.75 105.984 152.08C108.164 152.5 109.824 154.03 111.114 155.82C111.554 156.43 111.284 157.14 110.844 157.76C105.374 165.48 98.2337 170.27 88.5437 171.06C73.1937 172.31 59.8037 161.84 57.6537 146.76C56.8237 140.94 56.6638 134.91 57.1738 128.93C57.4838 125.24 57.3838 121.52 57.1138 117.8C56.9438 115.44 55.9037 115.02 53.8737 115.05C48.1437 115.14 42.4037 115.09 36.6637 115.06C35.9137 115.06 35.1237 115.26 33.8438 114.53L33.8638 114.54ZM61.5237 118.81C61.5237 116.33 61.4737 113.85 61.5437 111.38C61.5837 110.07 61.1137 109.62 59.8037 109.64C55.4637 109.7 51.1337 109.65 46.7937 109.69C46.1037 109.69 45.0137 109.31 44.9837 110.51C44.9537 111.73 46.0537 111.38 46.7337 111.38C49.7537 111.41 52.7737 111.36 55.7937 111.39C60.4337 111.44 59.7437 110.76 59.8037 115.5C59.8537 119.06 59.8037 122.62 59.8237 126.19C59.8237 126.86 59.6937 127.73 60.7737 127.67C61.6937 127.62 61.5237 126.83 61.5237 126.25C61.5437 123.77 61.5237 121.29 61.5237 118.82V118.81Z" fill="#E2C08E"/>
<path d="M137.884 57.4401C133.964 61.5601 130.834 66.5301 124.164 65.7701C119.204 65.2101 114.304 65.8201 109.424 66.6201C106.714 67.0601 106.284 66.7301 106.364 63.9201C106.654 54.4001 106.924 44.8801 106.724 35.3501C106.664 32.4101 106.544 29.4701 106.284 26.5501C105.504 17.9701 96.7836 9.9501 88.1136 9.4401C80.4636 8.9901 74.4036 11.6101 69.7736 17.7601C67.4636 20.8301 62.9836 20.2101 61.3636 16.6701C60.4736 14.7401 61.5936 13.2301 62.8336 11.8801C65.6836 8.7701 68.9736 6.2001 72.7636 4.3401C78.9936 1.2901 85.6536 0.210098 92.4136 1.5701C102.404 3.5801 109.184 9.7501 113.184 19.0501C114.574 22.2901 115.144 25.6901 115.134 29.2301C115.094 37.4301 115.114 45.6301 115.114 53.8301C115.114 56.7101 115.464 57.0601 118.304 57.0601C123.964 57.0601 129.624 57.0401 135.274 57.0501C136.024 57.0501 136.814 56.8601 137.884 57.4401ZM110.434 52.0801C110.434 54.4801 110.504 56.8801 110.404 59.2701C110.344 60.7701 110.824 61.3101 112.364 61.2701C116.534 61.1801 120.714 61.2601 124.894 61.2201C125.514 61.2201 126.584 61.5701 126.594 60.6001C126.594 59.4301 125.444 59.8601 124.774 59.8501C121.374 59.8001 117.964 59.7101 114.564 59.8701C112.414 59.9701 111.704 59.2601 111.784 57.1001C111.934 53.0801 111.844 49.0601 111.814 45.0401C111.814 44.4101 112.134 43.3401 111.204 43.3101C110.024 43.2801 110.474 44.4401 110.454 45.1101C110.394 47.4301 110.434 49.7501 110.434 52.0701V52.0801Z" fill="#E2C08E"/>
<path d="M64.2336 79.38C65.4036 77.23 67.4936 76.69 69.2936 75.93C76.6336 72.83 84.2036 70.4 92.1536 69.33C94.3336 69.04 96.4936 69.21 98.5836 69.84C102.244 70.95 103.494 73.92 102.084 78.32C99.8636 85.27 95.9536 91.28 91.5436 97C89.1136 100.15 86.2836 102.86 83.0136 105.12C82.3836 105.56 81.6836 106.18 80.9536 105.5C80.3336 104.92 80.7936 104.14 81.1236 103.57C82.9736 100.36 84.9036 97.2 86.7736 94C88.6836 90.72 90.4236 87.36 91.1836 83.58C91.9636 79.7 90.0736 77.1 86.1836 76.46C80.6936 75.55 75.4536 76.88 70.1836 78.04C68.1936 78.48 66.2136 78.93 64.2236 79.38H64.2336ZM92.8936 89.71C93.1136 89.79 93.3436 89.86 93.5636 89.94C95.9036 85.9 97.8936 81.71 97.8236 76.84C97.7936 74.85 96.5836 73.3 94.8036 72.82C90.7436 71.72 86.7236 72.18 82.8636 73.84C84.6336 73.91 86.3836 73.71 88.1436 73.71C93.8036 73.71 96.0736 76.44 95.0736 82.01C95.0036 82.39 94.8736 82.76 94.7636 83.13C94.1436 85.33 93.5236 87.52 92.9036 89.72L92.8936 89.71Z" fill="#E2C08E"/>
<path d="M416.855 96.2296C416.855 89.1696 416.865 82.1196 416.855 75.0596C416.855 72.6796 417.585 70.7396 419.935 69.8396C422.985 68.6696 425.865 70.6196 426.285 73.9796C426.375 74.6996 425.935 75.7596 426.835 76.0496C427.665 76.3196 428.065 75.2896 428.605 74.7896C436.045 67.9296 449.705 66.9495 458.055 72.7195C459.855 73.9695 461.415 75.4795 462.585 77.3295C463.225 78.3295 463.665 78.6096 464.605 77.5196C472.125 68.9196 481.775 67.4896 492.175 70.1396C500.305 72.2196 504.855 78.1796 505.845 86.3295C507.155 97.0496 506.275 107.86 506.325 118.63C506.345 121.52 504.035 123.44 501.335 123.37C498.485 123.3 496.605 121.32 496.595 118.16C496.555 110.17 496.575 102.19 496.585 94.1996C496.585 91.4696 496.315 88.7796 495.435 86.1796C494.045 82.0496 491.255 79.3996 486.995 78.3396C476.385 75.7096 467.705 81.7396 466.805 92.6196C466.145 100.58 466.655 108.58 466.565 116.57C466.515 121.13 464.995 123.31 461.715 123.37C458.365 123.43 456.665 121.12 456.655 116.51C456.655 109.22 456.655 101.93 456.655 94.6396C456.655 93.6296 456.655 92.6196 456.595 91.6196C456.055 83.1296 451.755 78.2996 444.385 77.8996C435.135 77.3896 428.735 82.0595 427.235 90.3595C426.625 93.7495 426.695 97.1496 426.685 100.56C426.685 106.38 426.705 112.19 426.675 118.01C426.655 121.28 424.745 123.35 421.845 123.37C418.975 123.39 416.895 121.3 416.865 118.09C416.795 110.8 416.845 103.51 416.845 96.2195L416.855 96.2296Z" fill="#234072"/>
<path d="M383.125 115.789C379.895 119.249 376.335 121.689 371.975 122.959C353.525 128.329 336.235 114.769 337.125 95.5995C337.735 82.5695 344.695 73.0295 356.305 70.0795C365.565 67.7295 374.325 68.6695 381.615 75.7195C381.925 76.0195 382.195 76.5895 382.725 76.2695C383.275 75.9495 383.075 75.2995 383.085 74.7895C383.095 67.9695 383.105 61.1495 383.085 54.3195C383.085 53.1495 383.125 51.9795 383.595 50.8895C384.475 48.8195 386.605 47.7095 388.925 48.0795C391.095 48.4195 392.675 50.0795 392.905 52.3095C392.975 52.9995 392.965 53.6995 392.965 54.3995C392.965 75.3295 392.965 96.2595 392.965 117.189C392.965 117.729 392.975 118.279 392.935 118.819C392.755 121.519 390.885 123.349 388.315 123.359C385.765 123.369 383.835 121.549 383.575 118.879C383.485 117.969 383.765 117.019 383.125 115.769V115.789ZM347.125 96.5195C347.135 109.229 357.645 117.819 369.555 114.939C385.535 111.069 386.235 91.1795 378.455 83.0895C373.435 77.8695 365.145 76.1195 358.055 78.9495C351.165 81.6995 347.125 88.2095 347.135 96.5195H347.125Z" fill="#234072"/>
<path d="M545.725 99.7596C539.215 99.7596 532.695 99.8096 526.185 99.7296C524.375 99.7096 523.905 100.14 524.385 101.99C526.245 109.1 532.375 114.39 540.095 115.21C545.715 115.8 551.045 115.05 555.845 111.72C558.135 110.13 560.585 110.56 562.015 112.53C563.495 114.58 563.025 117.05 560.615 118.78C553.505 123.88 545.515 124.92 537.115 123.53C512.975 119.54 509.215 93.5996 519.255 79.7696C525.925 70.5796 537.965 66.7596 549.605 70.2096C560.045 73.3096 567.255 82.8896 567.805 94.3996C567.972 97.9863 566.272 99.7796 562.705 99.7796C557.045 99.7796 551.385 99.7796 545.725 99.7796V99.7596ZM540.945 92.5996C546.065 92.5996 551.185 92.5496 556.305 92.6296C557.955 92.6596 558.455 92.2896 558.065 90.5296C556.255 82.5396 549.485 77.2296 540.955 77.2896C532.625 77.3496 525.875 82.8296 524.255 90.7396C523.955 92.2096 524.325 92.6496 525.835 92.6196C530.875 92.5396 535.915 92.5896 540.955 92.5896L540.945 92.5996Z" fill="#234072"/>
<path d="M248.315 99.7595C241.725 99.7595 235.135 99.8095 228.545 99.7295C226.625 99.6995 226.315 100.41 226.735 102.09C228.455 109.12 235.035 114.55 242.765 115.24C248.325 115.74 253.555 114.909 258.275 111.659C260.545 110.099 263.085 110.61 264.405 112.61C265.755 114.64 265.265 117.03 263.015 118.7C256.835 123.29 249.765 124.449 242.295 123.929C229.135 123.009 219.545 114.769 216.935 102.219C213.945 87.7995 222.015 73.8395 235.535 70.0395C254.235 64.7895 271.165 78.2695 270.205 97.5795C270.125 99.2795 269.565 99.8295 267.845 99.7995C261.335 99.7095 254.815 99.7595 248.305 99.7595H248.315ZM243.505 92.5995C248.535 92.5995 253.575 92.5295 258.605 92.6395C260.395 92.6795 260.675 92.0395 260.365 90.4695C258.805 82.6995 251.705 77.2195 243.225 77.2995C234.935 77.3695 227.995 83.0295 226.585 90.7595C226.305 92.2695 226.705 92.6495 228.175 92.6295C233.285 92.5595 238.395 92.5995 243.515 92.5995H243.505Z" fill="#234072"/>
<path d="M287.696 77.1095C293.446 70.6595 300.406 68.7995 308.186 69.0695C320.856 69.5095 328.876 77.3795 329.186 90.0895C329.416 99.3895 329.296 108.7 329.276 118.01C329.276 121.29 327.326 123.36 324.426 123.38C321.466 123.41 319.466 121.27 319.456 117.86C319.416 109.95 319.436 102.04 319.446 94.1295C319.446 91.8695 319.346 89.6395 318.736 87.4495C317.366 82.5395 314.336 79.2995 309.256 78.3195C299.296 76.3895 288.406 80.1495 287.986 94.7295C287.756 102.63 287.926 110.55 287.906 118.46C287.906 120.84 286.706 122.46 284.476 123.16C282.336 123.83 280.486 123.16 279.106 121.39C278.266 120.3 278.106 118.98 278.106 117.64C278.106 114.69 278.106 111.75 278.106 108.8C278.106 97.5495 278.096 86.3095 278.106 75.0595C278.106 71.7895 279.636 69.8695 282.296 69.6095C284.966 69.3495 286.996 70.8895 287.406 73.5495C287.556 74.5295 287.576 75.5395 287.696 77.1095Z" fill="#234072"/>
<path d="M198.566 85.7495C198.566 75.1295 198.566 64.5195 198.566 53.8995C198.566 50.2195 200.326 48.0895 203.366 48.0295C206.506 47.9695 208.436 50.1495 208.436 53.9095C208.446 75.1395 208.456 96.3795 208.436 117.61C208.436 121.2 206.506 123.38 203.466 123.38C200.506 123.38 198.576 121.24 198.566 117.83C198.546 107.14 198.566 96.4395 198.566 85.7495Z" fill="#234072"/>
</svg>
