<svg width="568" height="172" viewBox="0 0 568 172" fill="none" xmlns="http://www.w3.org/2000/svg">
<path d="M219.29 96.2296C219.29 89.1696 219.3 82.1196 219.29 75.0596C219.29 72.6796 220.02 70.7396 222.37 69.8396C225.42 68.6696 228.3 70.6196 228.72 73.9796C228.81 74.6996 228.37 75.7596 229.27 76.0496C230.1 76.3196 230.5 75.2896 231.04 74.7896C238.48 67.9296 252.14 66.9495 260.49 72.7195C262.29 73.9695 263.85 75.4795 265.02 77.3295C265.66 78.3295 266.1 78.6096 267.04 77.5196C274.56 68.9196 284.21 67.4896 294.61 70.1396C302.74 72.2196 307.29 78.1796 308.28 86.3295C309.59 97.0496 308.71 107.86 308.76 118.63C308.78 121.52 306.47 123.44 303.77 123.37C300.92 123.3 299.04 121.32 299.03 118.16C298.99 110.17 299.01 102.19 299.02 94.1996C299.02 91.4696 298.75 88.7796 297.87 86.1796C296.48 82.0496 293.69 79.3996 289.43 78.3396C278.82 75.7096 270.14 81.7396 269.24 92.6196C268.58 100.58 269.09 108.58 269 116.57C268.95 121.13 267.43 123.31 264.15 123.37C260.8 123.43 259.1 121.12 259.09 116.51C259.09 109.22 259.09 101.93 259.09 94.6396C259.09 93.6296 259.09 92.6196 259.03 91.6196C258.49 83.1296 254.19 78.2996 246.82 77.8996C237.57 77.3896 231.17 82.0595 229.67 90.3595C229.06 93.7495 229.13 97.1496 229.12 100.56C229.12 106.38 229.14 112.19 229.11 118.01C229.09 121.28 227.18 123.35 224.28 123.37C221.41 123.39 219.33 121.3 219.3 118.09C219.23 110.8 219.28 103.51 219.28 96.2195L219.29 96.2296Z" fill="#234072"/>
<path d="M185.56 115.789C182.33 119.249 178.77 121.689 174.41 122.959C155.96 128.329 138.67 114.769 139.56 95.5995C140.17 82.5695 147.13 73.0295 158.74 70.0795C168 67.7295 176.76 68.6695 184.05 75.7195C184.36 76.0195 184.63 76.5895 185.16 76.2695C185.71 75.9495 185.51 75.2995 185.52 74.7895C185.53 67.9695 185.54 61.1495 185.52 54.3195C185.52 53.1495 185.56 51.9795 186.03 50.8895C186.91 48.8195 189.04 47.7095 191.36 48.0795C193.53 48.4195 195.11 50.0795 195.34 52.3095C195.41 52.9995 195.4 53.6995 195.4 54.3995C195.4 75.3295 195.4 96.2595 195.4 117.189C195.4 117.729 195.41 118.279 195.37 118.819C195.19 121.519 193.32 123.349 190.75 123.359C188.2 123.369 186.27 121.549 186.01 118.879C185.92 117.969 186.2 117.019 185.56 115.769V115.789ZM149.56 96.5195C149.57 109.229 160.08 117.819 171.99 114.939C187.97 111.069 188.67 91.1795 180.89 83.0895C175.87 77.8695 167.58 76.1195 160.49 78.9495C153.6 81.6995 149.56 88.2095 149.57 96.5195H149.56Z" fill="#234072"/>
<path d="M348.16 99.7596C341.65 99.7596 335.13 99.8096 328.62 99.7296C326.81 99.7096 326.34 100.14 326.82 101.99C328.68 109.1 334.81 114.39 342.53 115.21C348.15 115.8 353.48 115.05 358.28 111.72C360.57 110.13 363.02 110.56 364.45 112.53C365.93 114.58 365.46 117.05 363.05 118.78C355.94 123.88 347.95 124.92 339.55 123.53C315.41 119.54 311.65 93.5996 321.69 79.7696C328.36 70.5796 340.4 66.7596 352.04 70.2096C362.48 73.3096 369.69 82.8896 370.24 94.3996C370.407 97.9863 368.707 99.7796 365.14 99.7796C359.48 99.7796 353.82 99.7796 348.16 99.7796V99.7596ZM343.38 92.5996C348.5 92.5996 353.62 92.5496 358.74 92.6296C360.39 92.6596 360.89 92.2896 360.5 90.5296C358.69 82.5396 351.92 77.2296 343.39 77.2896C335.06 77.3496 328.31 82.8296 326.69 90.7396C326.39 92.2096 326.76 92.6496 328.27 92.6196C333.31 92.5396 338.35 92.5896 343.39 92.5896L343.38 92.5996Z" fill="#234072"/>
<path d="M50.7499 99.7595C44.1599 99.7595 37.5699 99.8095 30.9799 99.7295C29.0599 99.6995 28.7499 100.41 29.1699 102.09C30.8899 109.12 37.4699 114.55 45.1999 115.24C50.7599 115.74 55.9899 114.909 60.7099 111.659C62.9799 110.099 65.5199 110.61 66.8399 112.61C68.1899 114.64 67.6999 117.03 65.4499 118.7C59.2699 123.29 52.1999 124.449 44.7299 123.929C31.5699 123.009 21.9799 114.769 19.3699 102.219C16.3799 87.7995 24.4499 73.8395 37.9699 70.0395C56.6699 64.7895 73.5999 78.2695 72.6399 97.5795C72.5599 99.2795 71.9999 99.8295 70.2799 99.7995C63.7699 99.7095 57.2499 99.7595 50.7399 99.7595H50.7499ZM45.9399 92.5995C50.9699 92.5995 56.0099 92.5295 61.0399 92.6395C62.8299 92.6795 63.1099 92.0395 62.7999 90.4695C61.2399 82.6995 54.1399 77.2195 45.6599 77.2995C37.3699 77.3695 30.4299 83.0295 29.0199 90.7595C28.7399 92.2695 29.1399 92.6495 30.6099 92.6295C35.7199 92.5595 40.8299 92.5995 45.9499 92.5995H45.9399Z" fill="#234072"/>
<path d="M90.1301 77.1095C95.8801 70.6595 102.84 68.7995 110.62 69.0695C123.29 69.5095 131.31 77.3795 131.62 90.0895C131.85 99.3895 131.73 108.7 131.71 118.01C131.71 121.29 129.76 123.36 126.86 123.38C123.9 123.41 121.9 121.27 121.89 117.86C121.85 109.95 121.87 102.04 121.88 94.1295C121.88 91.8695 121.78 89.6395 121.17 87.4495C119.8 82.5395 116.77 79.2995 111.69 78.3195C101.73 76.3895 90.8401 80.1495 90.4201 94.7295C90.1901 102.63 90.3601 110.55 90.3401 118.46C90.3401 120.84 89.1401 122.46 86.9101 123.16C84.7701 123.83 82.9201 123.16 81.5401 121.39C80.7001 120.3 80.5401 118.98 80.5401 117.64C80.5401 114.69 80.5401 111.75 80.5401 108.8C80.5401 97.5495 80.5301 86.3095 80.5401 75.0595C80.5401 71.7895 82.0701 69.8695 84.7301 69.6095C87.4001 69.3495 89.4301 70.8895 89.8401 73.5495C89.9901 74.5295 90.0101 75.5395 90.1301 77.1095Z" fill="#234072"/>
<path d="M1.0001 85.7495C1.0001 75.1295 1.0001 64.5195 1.0001 53.8995C1.0001 50.2195 2.7601 48.0895 5.8001 48.0295C8.9401 47.9695 10.8701 50.1495 10.8701 53.9095C10.8801 75.1395 10.8901 96.3795 10.8701 117.61C10.8701 121.2 8.9401 123.38 5.9001 123.38C2.9401 123.38 1.0101 121.24 1.0001 117.83C0.9801 107.14 1.0001 96.4395 1.0001 85.7495Z" fill="#234072"/>
<path d="M413.673 46.3201C413.633 31.0401 424.843 19.0001 439.923 17.3901C448.913 16.4301 456.253 19.4401 462.733 25.3701C468.903 31.0201 474.843 36.9101 480.453 43.1201C481.803 44.6101 482.773 44.7101 484.193 43.1701C487.913 39.1601 492.603 36.1001 495.803 31.5301C496.273 30.8601 497.093 30.3001 498.033 30.7001C498.913 31.0701 499.133 31.8701 499.223 32.7901C499.713 37.5401 498.613 41.5601 494.843 44.8801C490.193 48.9801 485.803 53.3801 483.423 59.3301C482.863 60.7301 482.243 59.7601 481.863 59.1801C480.763 57.5001 479.963 55.5801 478.663 54.0801C470.863 45.0401 462.853 36.0501 453.313 28.9301C444.923 22.6701 431.523 24.8201 425.813 36.1401C423.673 40.3801 421.803 44.6201 422.733 49.6401C423.223 52.3201 421.173 53.9401 417.793 54.1801C415.243 54.3601 414.453 53.5801 414.053 50.6301C413.843 49.0901 413.563 47.5701 413.663 46.3001L413.673 46.3201ZM493.583 40.9801C493.463 40.7301 493.423 40.4501 493.273 40.3701C492.653 40.0401 492.263 40.5001 491.883 40.8701C489.193 43.5401 486.463 46.1801 483.863 48.9301C482.663 50.2101 481.843 50.1301 480.663 48.9001C477.663 45.7701 474.563 42.7401 471.483 39.6901C471.143 39.3501 470.743 38.6601 470.163 39.2101C469.633 39.7101 470.113 40.2001 470.503 40.5901C474.163 44.2601 477.833 47.9201 481.493 51.5901C482.203 52.3001 482.673 52.2101 483.383 51.4701C486.313 48.3801 489.323 45.3801 492.303 42.3501C492.733 41.9101 493.133 41.4501 493.583 40.9701V40.9801Z" fill="#E2C08E"/>
<path d="M465.843 143.04C465.843 139.46 465.793 136.21 465.863 132.97C465.903 131.2 467.143 129.93 468.323 128.89C474.043 123.82 479.133 118.28 482.313 111.09C483.643 111.96 483.703 113.39 484.293 114.49C486.033 117.72 488.243 120.63 490.803 123.2C496.703 129.13 502.363 135.31 508.693 140.8C514.703 146.02 521.573 147.75 529.163 144.9C536.483 142.16 540.873 136.85 542.203 129.06C542.613 126.66 542.713 124.31 542.203 121.92C541.873 120.33 542.163 119.21 544.063 118.6C549.683 116.79 550.283 116.94 550.953 122.74C552.113 132.87 548.733 141.49 540.923 147.92C530.453 156.54 518.193 157.16 506.623 150.19C504.983 149.2 503.473 147.93 502.113 146.58C496.253 140.82 490.473 134.99 484.643 129.19C482.623 127.19 482.323 127.19 480.313 129.18C476.243 133.22 472.203 137.29 468.133 141.33C467.553 141.91 467.063 142.63 465.823 143.04H465.843ZM481.963 120.31C481.473 120.73 481.053 121.06 480.683 121.43C477.623 124.51 474.563 127.59 471.523 130.7C471.093 131.14 470.123 131.6 470.813 132.37C471.663 133.32 472.163 132.22 472.643 131.75C475.173 129.24 477.793 126.79 480.133 124.11C481.633 122.39 482.533 122.71 483.943 124.17C486.733 127.07 489.713 129.79 492.653 132.55C493.063 132.94 493.363 134.11 494.223 133.25C495.053 132.43 494.153 131.85 493.633 131.34C490.123 127.94 486.603 124.57 483.073 121.19C482.753 120.88 482.373 120.63 481.963 120.3V120.31Z" fill="#E2C08E"/>
<path d="M532.113 102.53C529.133 103.07 526.893 101.73 524.823 99.5501C520.883 95.4001 516.973 91.1901 511.913 88.2901C510.703 87.5901 508.533 87.4101 508.543 85.9801C508.543 84.7801 510.703 84.5201 511.853 83.7501C517.813 79.7501 522.933 74.8301 527.723 69.5301C529.643 67.4001 531.663 65.3801 533.823 63.4801C541.173 57.0301 544.953 48.1201 541.193 38.7701C538.243 31.4501 532.863 27.1101 524.833 26.1501C522.563 25.8801 520.383 26.0901 518.153 26.2201C515.783 26.3601 514.603 25.2901 514.233 22.9301C514.133 22.3201 514.083 21.7001 513.943 21.1001C513.523 19.2201 514.193 18.2201 516.143 17.8201C528.863 15.2201 541.883 21.1401 548.053 33.0701C554.233 45.0001 551.033 58.8701 542.123 67.3901C536.463 72.8001 531.023 78.4401 525.483 83.9701C523.543 85.9001 523.523 86.4501 525.573 88.1901C529.893 91.8601 533.653 96.1101 537.713 100.04C538.143 100.46 538.823 100.85 538.633 101.55C538.423 102.35 537.613 102.06 537.043 102.12C535.433 102.3 533.853 102.79 532.103 102.54L532.113 102.53ZM529.893 75.2301C529.963 74.6801 529.823 74.4201 529.493 74.3101C528.963 74.1401 528.613 74.5001 528.283 74.8201C524.593 78.3501 520.913 81.9001 517.213 85.4101C516.453 86.1301 516.613 86.6501 517.273 87.3301C520.393 90.5501 523.473 93.8201 526.593 97.0401C527.033 97.4901 527.553 98.3801 528.283 97.6401C528.993 96.9201 528.103 96.4001 527.673 95.9401C525.083 93.1801 522.523 90.3901 519.833 87.7301C518.713 86.6301 518.793 85.9501 519.893 84.9401C522.913 82.1601 525.853 79.3001 528.813 76.4601C529.253 76.0401 529.613 75.5501 529.903 75.2201L529.893 75.2301Z" fill="#E2C08E"/>
<path d="M425.903 70.25C431.123 68.03 438.433 69.71 441.683 73.84C445.283 78.41 449.573 82.1 454.833 84.66C455.653 85.06 457.483 85.59 455.483 86.72C445.073 92.59 438.153 102.29 429.533 110.11C424.513 114.66 422.073 120.19 422.373 127C422.713 134.73 427.703 141.68 434.983 144.33C438.713 145.69 442.423 146.73 446.503 145.95C449.283 145.42 450.153 146.2 450.683 148.65C451.323 151.59 450.633 153.35 448.173 154.08C444.313 155.22 440.333 155.05 436.473 154.12C422.343 150.74 413.323 139.04 413.693 124.49C413.893 116.59 417.343 110.03 422.833 104.51C428.293 99.02 433.603 93.37 439.383 88.2C441.133 86.63 441.123 85.62 439.453 83.95C435.173 79.68 430.883 75.42 426.603 71.15C426.343 70.89 426.143 70.57 425.893 70.25H425.903ZM436.473 74.31C436.193 74.53 435.873 74.66 435.743 74.89C435.403 75.54 435.993 75.87 436.343 76.24C438.693 78.61 441.053 80.95 443.413 83.31C445.913 85.81 445.933 85.83 443.403 88.42C440.753 91.14 438.043 93.8 435.373 96.5C434.963 96.92 434.233 97.4 434.783 98.04C435.493 98.86 436.033 98 436.473 97.56C439.993 94.07 443.463 90.52 447.013 87.06C447.983 86.12 447.913 85.53 446.983 84.63C443.813 81.56 440.713 78.41 437.573 75.3C437.253 74.98 436.893 74.7 436.463 74.33L436.473 74.31Z" fill="#E2C08E"/>
<path d="M527.613 115.08C522.183 115.08 517.913 115.13 513.653 115.05C511.943 115.02 511.323 115.62 511.343 117.34C511.423 122.84 511.383 128.35 511.373 133.85C511.373 134.81 511.683 135.97 510.403 136.44C509.143 136.9 508.453 135.89 507.953 135.12C506.383 132.68 503.363 131.37 502.763 128.18C502.463 126.59 502.963 125.1 502.953 123.57C502.903 117.7 502.983 111.81 500.893 106.17C500.343 104.69 501.063 104.26 502.363 104.6C514.883 107.91 527.643 106.35 540.283 106.22C555.093 106.08 564.153 88.07 556.213 75.5C554.653 73.04 552.713 71.01 550.383 69.27C547.793 67.33 547.903 65.66 550.713 62.23C552.183 60.43 553.153 60.55 555.603 62.4C561.393 66.75 565.133 72.35 566.973 79.4C570.943 94.63 560.443 111.3 544.973 114.28C538.803 115.47 532.623 114.81 527.613 115.06V115.08ZM515.083 108.7V108.78C512.603 108.78 510.123 108.79 507.643 108.78C506.553 108.78 505.833 109.09 505.863 110.35C505.993 114.99 506.103 119.64 506.223 124.28C506.233 124.86 506.323 125.4 507.083 125.38C507.893 125.35 507.763 124.83 507.743 124.24C507.653 120.44 507.703 116.65 507.543 112.85C507.473 111.06 507.963 110.38 509.863 110.44C513.733 110.56 517.613 110.49 521.493 110.41C522.393 110.39 523.963 110.98 524.013 109.63C524.063 108.16 522.483 108.78 521.593 108.75C519.423 108.67 517.253 108.72 515.083 108.72V108.7Z" fill="#E2C08E"/>
<path d="M437.363 57.06C441.783 57.06 446.203 56.98 450.623 57.09C452.813 57.14 453.693 56.39 453.653 54.13C453.543 48.4 453.643 42.66 453.583 36.92C453.563 35.33 453.973 34.89 455.373 35.87C459.743 38.92 462.613 42.78 462.493 48.4C462.353 54.59 462.223 60.79 464.073 66.82C464.323 67.63 464.303 68.35 463.153 67.93C451.793 63.81 439.983 65.9 428.363 65.47C426.153 65.39 423.873 65.77 421.713 66.28C412.733 68.39 407.493 74.28 405.973 83.18C404.583 91.31 408.263 97.62 414.473 102.58C417.033 104.62 417.313 105.54 415.653 108.18C414.063 110.7 412.463 111.14 409.783 109.72C405.823 107.63 403.433 104.02 401.443 100.28C395.363 88.83 395.643 77.62 403.953 67.29C409.053 60.94 416.043 57.72 424.103 57.14C428.503 56.82 432.933 57.08 437.353 57.08V57.06H437.363ZM449.323 61.24C451.723 61.24 454.123 61.17 456.513 61.27C457.963 61.33 458.373 60.76 458.353 59.38C458.283 55.13 458.353 50.87 458.313 46.62C458.313 46.03 458.673 44.99 457.543 45.07C456.703 45.13 456.943 46.03 456.943 46.6C456.923 50.08 456.803 53.57 456.973 57.04C457.093 59.35 456.213 59.96 454.033 59.89C449.933 59.75 445.833 59.84 441.733 59.86C441.173 59.86 440.323 59.67 440.373 60.63C440.413 61.38 441.163 61.24 441.663 61.24C444.213 61.26 446.773 61.24 449.323 61.25V61.24Z" fill="#E2C08E"/>
<path d="M430.124 114.54C433.884 111.89 435.774 107.41 440.654 106.58C442.444 106.28 444.204 106.35 445.974 106.42C451.664 106.63 457.284 106.35 462.674 104.33C464.194 103.76 464.244 104.33 463.904 105.57C460.544 117.83 462.014 130.38 462.164 142.78C462.304 154.8 471.614 162.98 483.624 162.66C489.924 162.49 494.814 159.4 498.634 154.55C499.614 153.31 500.524 151.75 502.244 152.08C504.424 152.5 506.084 154.03 507.374 155.82C507.814 156.43 507.544 157.14 507.104 157.76C501.634 165.48 494.494 170.27 484.804 171.06C469.454 172.31 456.064 161.84 453.914 146.76C453.084 140.94 452.924 134.91 453.434 128.93C453.744 125.24 453.644 121.52 453.374 117.8C453.204 115.44 452.164 115.02 450.134 115.05C444.404 115.14 438.664 115.09 432.924 115.06C432.174 115.06 431.384 115.26 430.104 114.53L430.124 114.54ZM457.784 118.81C457.784 116.33 457.734 113.85 457.804 111.38C457.844 110.07 457.374 109.62 456.064 109.64C451.724 109.7 447.394 109.65 443.054 109.69C442.364 109.69 441.274 109.31 441.244 110.51C441.214 111.73 442.314 111.38 442.994 111.38C446.014 111.41 449.034 111.36 452.054 111.39C456.694 111.44 456.004 110.76 456.064 115.5C456.114 119.06 456.064 122.62 456.084 126.19C456.084 126.86 455.954 127.73 457.034 127.67C457.954 127.62 457.784 126.83 457.784 126.25C457.804 123.77 457.784 121.29 457.784 118.82V118.81Z" fill="#E2C08E"/>
<path d="M534.143 57.4401C530.223 61.5601 527.093 66.5301 520.423 65.7701C515.463 65.2101 510.563 65.8201 505.683 66.6201C502.973 67.0601 502.543 66.7301 502.623 63.9201C502.913 54.4001 503.183 44.8801 502.983 35.3501C502.923 32.4101 502.803 29.4701 502.543 26.5501C501.763 17.9701 493.043 9.9501 484.373 9.4401C476.723 8.9901 470.663 11.6101 466.033 17.7601C463.723 20.8301 459.243 20.2101 457.623 16.6701C456.733 14.7401 457.853 13.2301 459.093 11.8801C461.943 8.7701 465.233 6.2001 469.023 4.3401C475.253 1.2901 481.913 0.210098 488.673 1.5701C498.663 3.5801 505.443 9.7501 509.443 19.0501C510.833 22.2901 511.403 25.6901 511.393 29.2301C511.353 37.4301 511.373 45.6301 511.373 53.8301C511.373 56.7101 511.723 57.0601 514.563 57.0601C520.223 57.0601 525.883 57.0401 531.533 57.0501C532.283 57.0501 533.073 56.8601 534.143 57.4401ZM506.693 52.0801C506.693 54.4801 506.763 56.8801 506.663 59.2701C506.603 60.7701 507.083 61.3101 508.623 61.2701C512.793 61.1801 516.973 61.2601 521.153 61.2201C521.773 61.2201 522.843 61.5701 522.853 60.6001C522.853 59.4301 521.703 59.8601 521.033 59.8501C517.633 59.8001 514.223 59.7101 510.823 59.8701C508.673 59.9701 507.963 59.2601 508.043 57.1001C508.193 53.0801 508.103 49.0601 508.073 45.0401C508.073 44.4101 508.393 43.3401 507.463 43.3101C506.283 43.2801 506.733 44.4401 506.713 45.1101C506.653 47.4301 506.693 49.7501 506.693 52.0701V52.0801Z" fill="#E2C08E"/>
<path d="M460.493 79.38C461.663 77.23 463.753 76.69 465.553 75.93C472.893 72.83 480.463 70.4 488.413 69.33C490.593 69.04 492.753 69.21 494.843 69.84C498.503 70.95 499.753 73.92 498.343 78.32C496.123 85.27 492.213 91.28 487.803 97C485.373 100.15 482.543 102.86 479.273 105.12C478.643 105.56 477.943 106.18 477.213 105.5C476.593 104.92 477.053 104.14 477.383 103.57C479.233 100.36 481.163 97.2 483.033 94C484.943 90.72 486.683 87.36 487.443 83.58C488.223 79.7 486.333 77.1 482.443 76.46C476.953 75.55 471.713 76.88 466.443 78.04C464.453 78.48 462.473 78.93 460.483 79.38H460.493ZM489.153 89.71C489.373 89.79 489.603 89.86 489.823 89.94C492.163 85.9 494.153 81.71 494.083 76.84C494.053 74.85 492.843 73.3 491.063 72.82C487.003 71.72 482.983 72.18 479.123 73.84C480.893 73.91 482.643 73.71 484.403 73.71C490.063 73.71 492.333 76.44 491.333 82.01C491.263 82.39 491.133 82.76 491.023 83.13C490.403 85.33 489.783 87.52 489.163 89.72L489.153 89.71Z" fill="#E2C08E"/>
</svg>
