<svg xmlns="http://www.w3.org/2000/svg" version="1.1" xmlns:xlink="http://www.w3.org/1999/xlink" xmlns:svgjs="http://svgjs.com/svgjs" width="512" height="512" x="0" y="0" viewBox="0 0 66 66" style="enable-background:new 0 0 512 512" xml:space="preserve" class=""><g><path d="M49.4 50.4V55c0 .5-.4 1-1 1h-8.3c-.2-1.4.7-5.7-1.8-10.6h4.3l1.1 4h4.8c.5 0 .9.4.9 1zM61.8 1.4h-49c-1.8 0-3.2 1.5-3.2 3.2v2.6c.6-.5 1.3-.9 2-1.3V4.6c0-.7.6-1.2 1.2-1.2h49c.7 0 1.2.5 1.2 1.2v28.1H31.8c-1.6.4-3.2.7-4.7.7l-.5.5c-.9 1-1.9 1.8-2.9 2.4 5.5.1 10.4 2.8 13.4 7.1h24.7c1.8 0 3.2-1.5 3.2-3.2V4.6c0-1.8-1.5-3.2-3.2-3.2zM37.3 39.9c-1 0-1.8-.8-1.8-1.8s.8-1.8 1.8-1.8 1.8.8 1.8 1.8-.8 1.8-1.8 1.8z" fill="#007299" data-original="#000000" opacity="1" class=""></path><path d="M28 28.1c.1-.3.2-.5.3-.8 2.7-.4 3.2-6.2.9-7.8-.9-5.3-5-9.2-9.7-9.2-4.8 0-8.8 3.9-9.7 9.2-2.3 1.6-1.8 7.3.9 7.8 1.6 4.2 4.9 8.3 8.8 8.3 2.2 0 4-1.2 5.6-2.9-1.5-.2-2.9-.6-4-1.3-.5.2-1 .3-1.5.3-2.3 0-4.3-1.9-4.3-4.3s1.9-4.3 4.3-4.3 4.3 1.9 4.3 4.3v.3c1.2.5 2.8.6 4.1.4zM23.5 38.3h-7.8C7.6 38.3 1 44.9 1 53v7c0 .4.3.8.6.9 11.5 4.8 23.6 5.2 35.9 0 .4-.2.6-.5.6-.9v-7c0-8.1-6.5-14.7-14.6-14.7z" fill="#007299" data-original="#000000" opacity="1" class=""></path><path d="M4.9 29.7H5c1.6 0 2.9-1.3 2.9-2.9v-3.1c0-1.3-.8-2.3-1.9-2.7.8-7.4 6.5-13.1 13.5-13.1s12.8 5.6 13.5 13c-1.1.4-1.9 1.5-1.9 2.7v3.1c0 .3 0 .5.1.7.1.4.3.8.5 1.1-2.4.8-6.4 1.7-9.3-.2.1-.3.2-.6.2-.9 0-1.6-1.3-3-3-3-1.6 0-3 1.4-3 3 0 1.7 1.4 3 3 3 .6 0 1.1-.2 1.6-.5 3.6 2.5 9.2 1.6 13.1-.3 1.6-.1 2.8-1.3 2.8-2.9v-3.1c0-1.3-.9-2.4-2.1-2.8-.8-8.5-7.5-15-15.5-15S4.8 12.3 4 20.8c-1.1.4-2 1.5-2 2.9v3.1c0 1.6 1.3 2.9 2.9 2.9zM58.2 25.1c0 .5-.4 1-1 1H46.4c-.5 0-1-.5-1-1s.5-1 1-1h10.8c.6 0 1 .4 1 1zM57.2 11.6H41.1c-.6 0-1-.4-1-1s.4-1 1-1h16.2c.6 0 1 .4 1 1-.1.5-.5 1-1.1 1zM58.2 17.8c0 .6-.4 1-1 1H44.7c-.6 0-1-.4-1-1s.4-1 1-1h12.5c.6 0 1 .5 1 1z" fill="#007299" data-original="#000000" opacity="1" class=""></path></g></svg>